# Blender v2.93.0 OBJ File: 'MainSimpleFold2.blend'
# www.blender.org
mtllib SimpleFold2.mtl
o BezierCurve
v -2.998780 0.000000 -1.621087
v -3.338109 0.000000 -1.600742
v -3.639227 0.000000 -1.543269
v -3.898324 0.000000 -1.454005
v -4.111591 0.000000 -1.338289
v -4.275217 0.000000 -1.201463
v -4.385392 0.000000 -1.048863
v -4.438305 0.000000 -0.885830
v -4.430146 0.000000 -0.717702
v -4.357105 0.000000 -0.549819
v -4.215372 0.000000 -0.387520
v -4.001136 0.000000 -0.236144
v -3.710589 0.000000 -0.101031
v -3.439443 0.000000 -0.015767
v -3.150560 0.000000 0.044100
v -2.847185 0.000000 0.081996
v -2.532561 0.000000 0.101350
v -2.209935 0.000000 0.105590
v -1.882549 0.000000 0.098143
v -1.553650 0.000000 0.082437
v -1.226481 0.000000 0.061901
v -0.904287 0.000000 0.039961
v -0.590313 0.000000 0.020046
v -0.287802 0.000000 0.005583
v 0.000000 0.000000 0.000000
l 1 2
l 2 3
l 3 4
l 4 5
l 5 6
l 6 7
l 7 8
l 8 9
l 9 10
l 10 11
l 11 12
l 12 13
l 13 14
l 14 15
l 15 16
l 16 17
l 17 18
l 18 19
l 19 20
l 20 21
l 21 22
l 22 23
l 23 24
l 24 25
o Cube
v -2.998780 2.419474 -1.744278
v -2.998780 -2.419474 -1.744278
v -2.998780 2.419474 -1.497896
v -2.998780 -2.419474 -1.497896
v -0.398188 2.419474 0.134190
v -0.398188 -2.419474 0.134190
v -0.408528 2.419474 -0.111975
v -0.408528 -2.419474 -0.111975
v -0.658819 2.419473 -0.099046
v -0.908017 2.419473 -0.083241
v -1.156145 2.419473 -0.066365
v -1.403686 2.419473 -0.050409
v -1.650707 2.419473 -0.036259
v -1.897250 2.419474 -0.024737
v -2.143053 2.419474 -0.019146
v -2.388053 2.419473 -0.019951
v -2.631959 2.419473 -0.028187
v -2.874306 2.419473 -0.045510
v -3.114004 2.419474 -0.075402
v -3.348731 2.419473 -0.122717
v -3.576393 2.419474 -0.187929
v -3.793720 2.419473 -0.275545
v -3.996688 2.419473 -0.383784
v -4.168119 2.419473 -0.520567
v -4.281960 2.419473 -0.685792
v -4.315793 2.419473 -0.865920
v -4.239791 2.419473 -1.040320
v -4.095683 2.419473 -1.191024
v -3.907824 2.419473 -1.308744
v -3.695125 2.419473 -1.393729
v -3.469046 2.419473 -1.450338
v -3.235866 2.419474 -1.483519
v -3.235866 -2.419473 -1.483520
v -3.469047 -2.419473 -1.450338
v -3.695126 -2.419473 -1.393729
v -3.907824 -2.419473 -1.308744
v -4.095684 -2.419473 -1.191024
v -4.239791 -2.419474 -1.040320
v -4.315793 -2.419473 -0.865920
v -4.281960 -2.419473 -0.685792
v -4.168119 -2.419473 -0.520567
v -3.996688 -2.419473 -0.383784
v -3.793719 -2.419473 -0.275545
v -3.576393 -2.419474 -0.187929
v -3.348731 -2.419473 -0.122717
v -3.114004 -2.419474 -0.075402
v -2.874305 -2.419474 -0.045510
v -2.631959 -2.419473 -0.028186
v -2.388053 -2.419473 -0.019951
v -2.143053 -2.419474 -0.019146
v -1.897249 -2.419474 -0.024737
v -1.650707 -2.419473 -0.036259
v -1.403686 -2.419473 -0.050409
v -1.156144 -2.419473 -0.066365
v -0.908017 -2.419473 -0.083241
v -0.658819 -2.419473 -0.099046
v -3.258231 2.419473 -1.728885
v -3.516567 2.419473 -1.692094
v -3.771760 2.419473 -1.627890
v -4.019475 2.419473 -1.528377
v -4.250852 2.419473 -1.382406
v -4.446233 2.419474 -1.174804
v -4.560341 2.419473 -0.895931
v -4.510273 2.419473 -0.593179
v -4.347538 2.419473 -0.351707
v -4.133237 2.419473 -0.178702
v -3.899237 2.419473 -0.052902
v -3.656189 2.419474 0.045173
v -3.406134 2.419473 0.116885
v -3.153337 2.419474 0.167821
v -2.899442 2.419474 0.199587
v -2.645765 2.419473 0.217809
v -2.392669 2.419473 0.226389
v -2.140307 2.419474 0.227221
v -1.888811 2.419474 0.221501
v -1.638472 2.419473 0.209819
v -1.388893 2.419473 0.195529
v -1.140037 2.419473 0.179491
v -0.891883 2.419473 0.162613
v -0.644651 2.419473 0.146929
v -0.644651 -2.419473 0.146929
v -0.891884 -2.419473 0.162613
v -1.140038 -2.419473 0.179490
v -1.388893 -2.419473 0.195529
v -1.638472 -2.419473 0.209819
v -1.888811 -2.419474 0.221501
v -2.140307 -2.419474 0.227221
v -2.392669 -2.419473 0.226389
v -2.645765 -2.419473 0.217809
v -2.899443 -2.419473 0.199587
v -3.153337 -2.419474 0.167821
v -3.406134 -2.419473 0.116885
v -3.656189 -2.419474 0.045173
v -3.899238 -2.419473 -0.052902
v -4.133237 -2.419473 -0.178702
v -4.347538 -2.419473 -0.351707
v -4.510273 -2.419473 -0.593179
v -4.560341 -2.419473 -0.895931
v -4.446233 -2.419473 -1.174804
v -4.250852 -2.419473 -1.382406
v -4.019475 -2.419473 -1.528377
v -3.771760 -2.419473 -1.627890
v -3.516567 -2.419473 -1.692094
v -3.258231 -2.419474 -1.728885
vt 0.375000 0.000000
vt 0.375000 0.250000
vt 0.625000 0.250000
vt 0.625000 0.000000
vt 0.375000 0.490000
vt 0.375000 0.500000
vt 0.625000 0.500000
vt 0.625000 0.490000
vt 0.375000 0.750000
vt 0.625000 0.750000
vt 0.375000 0.990000
vt 0.375000 1.000000
vt 0.625000 1.000000
vt 0.625000 0.990000
vt 0.365000 0.500000
vt 0.365000 0.750000
vt 0.865000 0.500000
vt 0.865000 0.750000
vt 0.875000 0.750000
vt 0.875000 0.500000
vt 0.635000 0.750000
vt 0.635000 0.500000
vt 0.645000 0.750000
vt 0.645000 0.500000
vt 0.655000 0.750000
vt 0.655000 0.500000
vt 0.665000 0.750000
vt 0.665000 0.500000
vt 0.675000 0.750000
vt 0.675000 0.500000
vt 0.685000 0.750000
vt 0.685000 0.500000
vt 0.695000 0.750000
vt 0.695000 0.500000
vt 0.705000 0.750000
vt 0.705000 0.500000
vt 0.715000 0.750000
vt 0.715000 0.500000
vt 0.725000 0.750000
vt 0.725000 0.500000
vt 0.735000 0.750000
vt 0.735000 0.500000
vt 0.745000 0.750000
vt 0.745000 0.500000
vt 0.755000 0.750000
vt 0.755000 0.500000
vt 0.765000 0.750000
vt 0.765000 0.500000
vt 0.775000 0.750000
vt 0.775000 0.500000
vt 0.785000 0.750000
vt 0.785000 0.500000
vt 0.795000 0.750000
vt 0.795000 0.500000
vt 0.805000 0.750000
vt 0.805000 0.500000
vt 0.815000 0.750000
vt 0.815000 0.500000
vt 0.825000 0.750000
vt 0.825000 0.500000
vt 0.835000 0.750000
vt 0.835000 0.500000
vt 0.845000 0.750000
vt 0.845000 0.500000
vt 0.855000 0.750000
vt 0.855000 0.500000
vt 0.125000 0.500000
vt 0.125000 0.750000
vt 0.135000 0.750000
vt 0.135000 0.500000
vt 0.145000 0.750000
vt 0.145000 0.500000
vt 0.155000 0.750000
vt 0.155000 0.500000
vt 0.165000 0.750000
vt 0.165000 0.500000
vt 0.175000 0.750000
vt 0.175000 0.500000
vt 0.185000 0.750000
vt 0.185000 0.500000
vt 0.195000 0.750000
vt 0.195000 0.500000
vt 0.205000 0.750000
vt 0.205000 0.500000
vt 0.215000 0.750000
vt 0.215000 0.500000
vt 0.225000 0.750000
vt 0.225000 0.500000
vt 0.235000 0.750000
vt 0.235000 0.500000
vt 0.245000 0.750000
vt 0.245000 0.500000
vt 0.255000 0.750000
vt 0.255000 0.500000
vt 0.265000 0.750000
vt 0.265000 0.500000
vt 0.275000 0.750000
vt 0.275000 0.500000
vt 0.285000 0.750000
vt 0.285000 0.500000
vt 0.295000 0.750000
vt 0.295000 0.500000
vt 0.305000 0.750000
vt 0.305000 0.500000
vt 0.315000 0.750000
vt 0.315000 0.500000
vt 0.325000 0.750000
vt 0.325000 0.500000
vt 0.335000 0.750000
vt 0.335000 0.500000
vt 0.345000 0.750000
vt 0.345000 0.500000
vt 0.355000 0.750000
vt 0.355000 0.500000
vt 0.375000 0.760000
vt 0.625000 0.760000
vt 0.375000 0.770000
vt 0.625000 0.770000
vt 0.375000 0.780000
vt 0.625000 0.780000
vt 0.375000 0.790000
vt 0.625000 0.790000
vt 0.375000 0.800000
vt 0.625000 0.800000
vt 0.375000 0.810000
vt 0.625000 0.810000
vt 0.375000 0.820000
vt 0.625000 0.820000
vt 0.375000 0.830000
vt 0.625000 0.830000
vt 0.375000 0.840000
vt 0.625000 0.840000
vt 0.375000 0.850000
vt 0.625000 0.850000
vt 0.375000 0.860000
vt 0.625000 0.860000
vt 0.375000 0.870000
vt 0.625000 0.870000
vt 0.375000 0.880000
vt 0.625000 0.880000
vt 0.375000 0.890000
vt 0.625000 0.890000
vt 0.375000 0.900000
vt 0.625000 0.900000
vt 0.375000 0.910000
vt 0.625000 0.910000
vt 0.375000 0.920000
vt 0.625000 0.920000
vt 0.375000 0.930000
vt 0.625000 0.930000
vt 0.375000 0.940000
vt 0.625000 0.940000
vt 0.375000 0.950000
vt 0.625000 0.950000
vt 0.375000 0.960000
vt 0.625000 0.960000
vt 0.375000 0.970000
vt 0.625000 0.970000
vt 0.375000 0.980000
vt 0.625000 0.980000
vt 0.375000 0.260000
vt 0.625000 0.260000
vt 0.375000 0.270000
vt 0.625000 0.270000
vt 0.375000 0.280000
vt 0.625000 0.280000
vt 0.375000 0.290000
vt 0.625000 0.290000
vt 0.375000 0.300000
vt 0.625000 0.300000
vt 0.375000 0.310000
vt 0.625000 0.310000
vt 0.375000 0.320000
vt 0.625000 0.320000
vt 0.375000 0.330000
vt 0.625000 0.330000
vt 0.375000 0.340000
vt 0.625000 0.340000
vt 0.375000 0.350000
vt 0.625000 0.350000
vt 0.375000 0.360000
vt 0.625000 0.360000
vt 0.375000 0.370000
vt 0.625000 0.370000
vt 0.375000 0.380000
vt 0.625000 0.380000
vt 0.375000 0.390000
vt 0.625000 0.390000
vt 0.375000 0.400000
vt 0.625000 0.400000
vt 0.375000 0.410000
vt 0.625000 0.410000
vt 0.375000 0.420000
vt 0.625000 0.420000
vt 0.375000 0.430000
vt 0.625000 0.430000
vt 0.375000 0.440000
vt 0.625000 0.440000
vt 0.375000 0.450000
vt 0.625000 0.450000
vt 0.375000 0.460000
vt 0.625000 0.460000
vt 0.375000 0.470000
vt 0.625000 0.470000
vt 0.375000 0.480000
vt 0.625000 0.480000
vn 1.0000 0.0000 0.0000
vn -0.0516 0.0000 -0.9987
vn 0.9991 -0.0000 -0.0420
vn -0.0592 -0.0000 -0.9982
vn -0.0000 1.0000 0.0000
vn -0.0000 -1.0000 0.0000
vn 0.0516 0.0000 0.9987
vn 0.0633 -0.0000 0.9980
vn 0.0679 -0.0000 0.9977
vn 0.0643 -0.0000 0.9979
vn 0.0572 -0.0000 0.9984
vn 0.0466 -0.0000 0.9989
vn 0.0227 -0.0000 0.9997
vn -0.0033 -0.0000 1.0000
vn -0.0339 -0.0000 0.9994
vn -0.0716 0.0000 0.9974
vn -0.1241 0.0000 0.9923
vn -0.1975 -0.0000 0.9803
vn -0.2757 0.0000 0.9613
vn -0.3742 0.0000 0.9273
vn -0.4735 0.0000 0.8808
vn -0.6282 0.0000 0.7781
vn -0.8293 -0.0000 0.5589
vn -0.9866 0.0000 0.1632
vn -0.9255 0.0000 -0.3787
vn -0.7282 -0.0000 -0.6853
vn -0.5336 0.0000 -0.8458
vn -0.3728 0.0000 -0.9279
vn -0.2440 -0.0000 -0.9698
vn -0.1410 -0.0000 -0.9900
vn 0.0605 -0.0000 0.9982
vn 0.1409 -0.0000 0.9900
vn 0.2429 -0.0000 0.9701
vn 0.3710 -0.0000 0.9286
vn 0.5310 0.0000 0.8474
vn 0.7227 -0.0000 0.6911
vn 0.9167 0.0000 0.3995
vn 0.9828 0.0000 -0.1846
vn 0.8235 0.0000 -0.5674
vn 0.6237 0.0000 -0.7817
vn 0.4705 0.0000 -0.8824
vn 0.3739 0.0000 -0.9275
vn 0.2754 0.0000 -0.9613
vn 0.1976 0.0000 -0.9803
vn 0.1237 0.0000 -0.9923
vn 0.0713 -0.0000 -0.9975
vn 0.0337 0.0000 -0.9994
vn 0.0033 0.0000 -1.0000
vn -0.0227 0.0000 -0.9997
vn -0.0467 0.0000 -0.9989
vn -0.0572 0.0000 -0.9984
vn -0.0643 0.0000 -0.9979
vn -0.0679 0.0000 -0.9977
vn -0.0633 0.0000 -0.9980
usemtl None
s off
f 26/1/1 28/2/1 29/3/1 27/4/1
f 34/5/2 32/6/2 33/7/2 81/8/2
f 32/6/3 30/9/3 31/10/3 33/7/3
f 82/11/4 26/12/4 27/13/4 129/14/4
f 34/15/5 105/16/5 30/9/5 32/6/5
f 58/17/6 129/18/6 27/19/6 29/20/6
f 33/7/6 31/10/6 106/21/6 81/22/6
f 81/22/6 106/21/6 107/23/6 80/24/6
f 80/24/6 107/23/6 108/25/6 79/26/6
f 79/26/6 108/25/6 109/27/6 78/28/6
f 78/28/6 109/27/6 110/29/6 77/30/6
f 77/30/6 110/29/6 111/31/6 76/32/6
f 76/32/6 111/31/6 112/33/6 75/34/6
f 75/34/6 112/33/6 113/35/6 74/36/6
f 74/36/6 113/35/6 114/37/6 73/38/6
f 73/38/6 114/37/6 115/39/6 72/40/6
f 72/40/6 115/39/6 116/41/6 71/42/6
f 71/42/6 116/41/6 117/43/6 70/44/6
f 70/44/6 117/43/6 118/45/6 69/46/6
f 69/46/6 118/45/6 119/47/6 68/48/6
f 68/48/6 119/47/6 120/49/6 67/50/6
f 67/50/6 120/49/6 121/51/6 66/52/6
f 66/52/6 121/51/6 122/53/6 65/54/6
f 65/54/6 122/53/6 123/55/6 64/56/6
f 64/56/6 123/55/6 124/57/6 63/58/6
f 63/58/6 124/57/6 125/59/6 62/60/6
f 62/60/6 125/59/6 126/61/6 61/62/6
f 61/62/6 126/61/6 127/63/6 60/64/6
f 60/64/6 127/63/6 128/65/6 59/66/6
f 59/66/6 128/65/6 129/18/6 58/17/6
f 28/67/5 26/68/5 82/69/5 57/70/5
f 57/70/5 82/69/5 83/71/5 56/72/5
f 56/72/5 83/71/5 84/73/5 55/74/5
f 55/74/5 84/73/5 85/75/5 54/76/5
f 54/76/5 85/75/5 86/77/5 53/78/5
f 53/78/5 86/77/5 87/79/5 52/80/5
f 52/80/5 87/79/5 88/81/5 51/82/5
f 51/82/5 88/81/5 89/83/5 50/84/5
f 50/84/5 89/83/5 90/85/5 49/86/5
f 49/86/5 90/85/5 91/87/5 48/88/5
f 48/88/5 91/87/5 92/89/5 47/90/5
f 47/90/5 92/89/5 93/91/5 46/92/5
f 46/92/5 93/91/5 94/93/5 45/94/5
f 45/94/5 94/93/5 95/95/5 44/96/5
f 44/96/5 95/95/5 96/97/5 43/98/5
f 43/98/5 96/97/5 97/99/5 42/100/5
f 42/100/5 97/99/5 98/101/5 41/102/5
f 41/102/5 98/101/5 99/103/5 40/104/5
f 40/104/5 99/103/5 100/105/5 39/106/5
f 39/106/5 100/105/5 101/107/5 38/108/5
f 38/108/5 101/107/5 102/109/5 37/110/5
f 37/110/5 102/109/5 103/111/5 36/112/5
f 36/112/5 103/111/5 104/113/5 35/114/5
f 35/114/5 104/113/5 105/16/5 34/15/5
f 30/9/7 105/115/7 106/116/7 31/10/7
f 105/115/8 104/117/8 107/118/8 106/116/8
f 104/117/9 103/119/9 108/120/9 107/118/9
f 103/119/10 102/121/10 109/122/10 108/120/10
f 102/121/11 101/123/11 110/124/11 109/122/11
f 101/123/12 100/125/12 111/126/12 110/124/12
f 100/125/13 99/127/13 112/128/13 111/126/13
f 99/127/14 98/129/14 113/130/14 112/128/14
f 98/129/15 97/131/15 114/132/15 113/130/15
f 97/131/16 96/133/16 115/134/16 114/132/16
f 96/133/17 95/135/17 116/136/17 115/134/17
f 95/135/18 94/137/18 117/138/18 116/136/18
f 94/137/19 93/139/19 118/140/19 117/138/19
f 93/139/20 92/141/20 119/142/20 118/140/20
f 92/141/21 91/143/21 120/144/21 119/142/21
f 91/143/22 90/145/22 121/146/22 120/144/22
f 90/145/23 89/147/23 122/148/23 121/146/23
f 89/147/24 88/149/24 123/150/24 122/148/24
f 88/149/25 87/151/25 124/152/25 123/150/25
f 87/151/26 86/153/26 125/154/26 124/152/26
f 86/153/27 85/155/27 126/156/27 125/154/27
f 85/155/28 84/157/28 127/158/28 126/156/28
f 84/157/29 83/159/29 128/160/29 127/158/29
f 83/159/30 82/11/30 129/14/30 128/160/30
f 28/2/31 57/161/31 58/162/31 29/3/31
f 57/161/32 56/163/32 59/164/32 58/162/32
f 56/163/33 55/165/33 60/166/33 59/164/33
f 55/165/34 54/167/34 61/168/34 60/166/34
f 54/167/35 53/169/35 62/170/35 61/168/35
f 53/169/36 52/171/36 63/172/36 62/170/36
f 52/171/37 51/173/37 64/174/37 63/172/37
f 51/173/38 50/175/38 65/176/38 64/174/38
f 50/175/39 49/177/39 66/178/39 65/176/39
f 49/177/40 48/179/40 67/180/40 66/178/40
f 48/179/41 47/181/41 68/182/41 67/180/41
f 47/181/42 46/183/42 69/184/42 68/182/42
f 46/183/43 45/185/43 70/186/43 69/184/43
f 45/185/44 44/187/44 71/188/44 70/186/44
f 44/187/45 43/189/45 72/190/45 71/188/45
f 43/189/46 42/191/46 73/192/46 72/190/46
f 42/191/47 41/193/47 74/194/47 73/192/47
f 41/193/48 40/195/48 75/196/48 74/194/48
f 40/195/49 39/197/49 76/198/49 75/196/49
f 39/197/50 38/199/50 77/200/50 76/198/50
f 38/199/51 37/201/51 78/202/51 77/200/51
f 37/201/52 36/203/52 79/204/52 78/202/52
f 36/203/53 35/205/53 80/206/53 79/204/53
f 35/205/54 34/5/54 81/8/54 80/206/54
