# Blender v2.93.0 OBJ File: 'EdgeFold1.blend'
# www.blender.org
mtllib EdgeFold1.mtl
o BezierCurve_BezierCurve.001
v -4.218699 0.000000 -1.419013
v -4.280428 0.000000 -1.371127
v -4.335383 0.000000 -1.333085
v -4.384178 0.000000 -1.301802
v -4.427425 0.000000 -1.274198
v -4.465741 0.000000 -1.247189
v -4.499738 0.000000 -1.217693
v -4.530031 0.000000 -1.182628
v -4.557234 0.000000 -1.138911
v -4.581961 0.000000 -1.083459
v -4.604825 0.000000 -1.013192
v -4.626443 0.000000 -0.925024
v -4.647427 0.000000 -0.815876
v -4.661147 0.000000 -0.671871
v -4.651127 0.000000 -0.540872
v -4.618789 0.000000 -0.422318
v -4.565554 0.000000 -0.315652
v -4.492845 0.000000 -0.220315
v -4.402082 0.000000 -0.135748
v -4.294690 0.000000 -0.061393
v -4.172088 0.000000 0.003310
v -4.035699 0.000000 0.058918
v -3.886946 0.000000 0.105991
v -3.727250 0.000000 0.145088
v -3.558033 0.000000 0.176766
v -3.385506 0.000000 0.196797
v -3.163784 0.000000 0.210527
v -2.903334 0.000000 0.218732
v -2.614621 0.000000 0.222187
v -2.308111 0.000000 0.221667
v -1.994268 0.000000 0.217948
v -1.683559 0.000000 0.211805
v -1.386450 0.000000 0.204013
v -1.113405 0.000000 0.195348
v -0.874892 0.000000 0.186585
v -0.681374 0.000000 0.178498
v -0.543317 0.000000 0.171865
v -0.514969 0.000000 0.169701
v -0.480286 0.000000 0.165954
v -0.440554 0.000000 0.160817
v -0.397054 0.000000 0.154482
v -0.351070 0.000000 0.147139
v -0.303886 0.000000 0.138981
v -0.256785 0.000000 0.130200
v -0.211051 0.000000 0.120987
v -0.167967 0.000000 0.111535
v -0.128816 0.000000 0.102034
v -0.094883 0.000000 0.092677
v -0.067449 0.000000 0.083656
l 1 2
l 2 3
l 3 4
l 4 5
l 5 6
l 6 7
l 7 8
l 8 9
l 9 10
l 10 11
l 11 12
l 12 13
l 13 14
l 14 15
l 15 16
l 16 17
l 17 18
l 18 19
l 19 20
l 20 21
l 21 22
l 22 23
l 23 24
l 24 25
l 25 26
l 26 27
l 27 28
l 28 29
l 29 30
l 30 31
l 31 32
l 32 33
l 33 34
l 34 35
l 35 36
l 36 37
l 37 38
l 38 39
l 39 40
l 40 41
l 41 42
l 42 43
l 43 44
l 44 45
l 45 46
l 46 47
l 47 48
l 48 49
o Cube_Cube.001
v -0.041345 2.376640 0.004276
v 0.005361 2.376640 0.130508
v -0.041345 -2.376640 0.004276
v 0.005361 -2.376640 0.130508
v -4.283005 2.376640 -1.287496
v -4.358954 2.376640 -1.398616
v -4.283006 -2.376640 -1.287495
v -4.358954 -2.376640 -1.398616
v -4.455825 -2.376641 -1.165698
v -4.540345 -2.376640 -0.993757
v -4.583001 -2.376640 -0.782743
v -4.586347 -2.376640 -0.574719
v -4.524400 -2.376641 -0.383836
v -4.398969 -2.376641 -0.224830
v -4.228819 -2.376640 -0.102688
v -4.033171 -2.376640 -0.012703
v -3.824120 -2.376640 0.052096
v -3.608683 -2.376640 0.098822
v -3.390135 -2.376640 0.128527
v -3.167521 -2.376640 0.142875
v -2.943049 -2.376640 0.150150
v -2.717971 -2.376641 0.153647
v -2.492607 -2.376640 0.154682
v -2.267081 -2.376641 0.153879
v -2.041443 -2.376640 0.151205
v -1.815758 -2.376641 0.147108
v -1.590056 -2.376640 0.142032
v -1.364350 -2.376640 0.135980
v -1.138664 -2.376641 0.128818
v -0.913036 -2.376640 0.120642
v -0.687557 -2.376640 0.111400
v -0.467663 -2.376640 0.096464
v -0.249389 -2.376640 0.060060
v -0.222819 -2.376640 0.192007
v -0.450485 -2.376640 0.229959
v -0.681531 -2.376640 0.245861
v -0.907857 -2.376640 0.255139
v -1.134117 -2.376641 0.263337
v -1.360389 -2.376640 0.270518
v -1.586704 -2.376641 0.276586
v -1.813071 -2.376641 0.281677
v -2.039495 -2.376640 0.285787
v -2.266010 -2.376640 0.288470
v -2.492662 -2.376640 0.289278
v -2.719468 -2.376641 0.288235
v -2.946508 -2.376640 0.284702
v -3.173978 -2.376640 0.277316
v -3.402580 -2.376641 0.262546
v -3.631882 -2.376640 0.231403
v -3.858186 -2.376640 0.182309
v -4.080681 -2.376641 0.113230
v -4.295290 -2.376641 0.014348
v -4.490900 -2.376640 -0.126520
v -4.643067 -2.376641 -0.320319
v -4.719676 -2.376641 -0.556291
v -4.716641 -2.376640 -0.798753
v -4.669818 -2.376640 -1.030537
v -4.553352 -2.376641 -1.258459
v -0.249389 2.376640 0.060060
v -0.467663 2.376640 0.096465
v -0.687558 2.376640 0.111401
v -0.913037 2.376640 0.120643
v -1.138664 2.376641 0.128818
v -1.364350 2.376640 0.135981
v -1.590057 2.376641 0.142032
v -1.815758 2.376641 0.147108
v -2.041443 2.376640 0.151205
v -2.267082 2.376640 0.153879
v -2.492608 2.376640 0.154682
v -2.717971 2.376641 0.153648
v -2.943049 2.376640 0.150151
v -3.167520 2.376640 0.142876
v -3.390135 2.376641 0.128528
v -3.608683 2.376640 0.098822
v -3.824120 2.376640 0.052096
v -4.033171 2.376641 -0.012702
v -4.228819 2.376641 -0.102688
v -4.398969 2.376640 -0.224830
v -4.524400 2.376641 -0.383835
v -4.586347 2.376641 -0.574718
v -4.583001 2.376640 -0.782743
v -4.540345 2.376640 -0.993758
v -4.455825 2.376641 -1.165698
v -4.553352 2.376641 -1.258460
v -4.669818 2.376640 -1.030537
v -4.716641 2.376640 -0.798753
v -4.719676 2.376640 -0.556290
v -4.643067 2.376641 -0.320318
v -4.490900 2.376641 -0.126520
v -4.295290 2.376640 0.014349
v -4.080680 2.376640 0.113230
v -3.858186 2.376640 0.182310
v -3.631882 2.376640 0.231404
v -3.402579 2.376640 0.262547
v -3.173977 2.376640 0.277317
v -2.946507 2.376640 0.284703
v -2.719467 2.376641 0.288236
v -2.492661 2.376640 0.289279
v -2.266009 2.376641 0.288471
v -2.039494 2.376640 0.285787
v -1.813071 2.376641 0.281677
v -1.586704 2.376640 0.276586
v -1.360388 2.376640 0.270518
v -1.134117 2.376641 0.263338
v -0.907856 2.376640 0.255140
v -0.681530 2.376640 0.245862
v -0.450485 2.376640 0.229960
v -0.222819 2.376640 0.192008
vt 0.375000 0.000000
vt 0.625000 0.000000
vt 0.625000 0.250000
vt 0.375000 0.250000
vt 0.375000 0.490385
vt 0.625000 0.490385
vt 0.625000 0.500000
vt 0.375000 0.500000
vt 0.625000 0.750000
vt 0.375000 0.750000
vt 0.375000 0.990385
vt 0.625000 0.990385
vt 0.625000 1.000000
vt 0.375000 1.000000
vt 0.365385 0.500000
vt 0.365385 0.750000
vt 0.865385 0.500000
vt 0.875000 0.500000
vt 0.875000 0.750000
vt 0.865385 0.750000
vt 0.634615 0.500000
vt 0.634615 0.750000
vt 0.644231 0.500000
vt 0.644231 0.750000
vt 0.653846 0.500000
vt 0.653846 0.750000
vt 0.663462 0.500000
vt 0.663462 0.750000
vt 0.673077 0.500000
vt 0.673077 0.750000
vt 0.682692 0.500000
vt 0.682692 0.750000
vt 0.692308 0.500000
vt 0.692308 0.750000
vt 0.701923 0.500000
vt 0.701923 0.750000
vt 0.711538 0.500000
vt 0.711539 0.750000
vt 0.721154 0.500000
vt 0.721154 0.750000
vt 0.730769 0.500000
vt 0.730769 0.750000
vt 0.740385 0.500000
vt 0.740385 0.750000
vt 0.750000 0.500000
vt 0.750000 0.750000
vt 0.759615 0.500000
vt 0.759615 0.750000
vt 0.769231 0.500000
vt 0.769231 0.750000
vt 0.778846 0.500000
vt 0.778846 0.750000
vt 0.788461 0.500000
vt 0.788462 0.750000
vt 0.798077 0.500000
vt 0.798077 0.750000
vt 0.807692 0.500000
vt 0.807692 0.750000
vt 0.817308 0.500000
vt 0.817308 0.750000
vt 0.826923 0.500000
vt 0.826923 0.750000
vt 0.836538 0.500000
vt 0.836539 0.750000
vt 0.846154 0.500000
vt 0.846154 0.750000
vt 0.855769 0.500000
vt 0.855769 0.750000
vt 0.125000 0.500000
vt 0.134615 0.500000
vt 0.134615 0.750000
vt 0.125000 0.750000
vt 0.144231 0.500000
vt 0.144231 0.750000
vt 0.153846 0.500000
vt 0.153846 0.750000
vt 0.163462 0.500000
vt 0.163462 0.750000
vt 0.173077 0.500000
vt 0.173077 0.750000
vt 0.182692 0.500000
vt 0.182692 0.750000
vt 0.192308 0.500000
vt 0.192308 0.750000
vt 0.201923 0.500000
vt 0.201923 0.750000
vt 0.211538 0.500000
vt 0.211538 0.750000
vt 0.221154 0.500000
vt 0.221154 0.750000
vt 0.230769 0.500000
vt 0.230769 0.750000
vt 0.240385 0.500000
vt 0.240385 0.750000
vt 0.250000 0.500000
vt 0.250000 0.750000
vt 0.259615 0.500000
vt 0.259615 0.750000
vt 0.269231 0.500000
vt 0.269231 0.750000
vt 0.278846 0.500000
vt 0.278846 0.750000
vt 0.288462 0.500000
vt 0.288462 0.750000
vt 0.298077 0.500000
vt 0.298077 0.750000
vt 0.307692 0.500000
vt 0.307692 0.750000
vt 0.317308 0.500000
vt 0.317308 0.750000
vt 0.326923 0.500000
vt 0.326923 0.750000
vt 0.336538 0.500000
vt 0.336538 0.750000
vt 0.346154 0.500000
vt 0.346154 0.750000
vt 0.355769 0.500000
vt 0.355769 0.750000
vt 0.625000 0.759615
vt 0.375000 0.759615
vt 0.625000 0.769231
vt 0.375000 0.769231
vt 0.625000 0.778846
vt 0.375000 0.778846
vt 0.625000 0.788462
vt 0.375000 0.788462
vt 0.625000 0.798077
vt 0.375000 0.798077
vt 0.625000 0.807692
vt 0.375000 0.807692
vt 0.625000 0.817308
vt 0.375000 0.817308
vt 0.625000 0.826923
vt 0.375000 0.826923
vt 0.625000 0.836538
vt 0.375000 0.836538
vt 0.625000 0.846154
vt 0.375000 0.846154
vt 0.625000 0.855769
vt 0.375000 0.855769
vt 0.625000 0.865385
vt 0.375000 0.865385
vt 0.625000 0.875000
vt 0.375000 0.875000
vt 0.625000 0.884615
vt 0.375000 0.884615
vt 0.625000 0.894231
vt 0.375000 0.894231
vt 0.625000 0.903846
vt 0.375000 0.903846
vt 0.625000 0.913461
vt 0.375000 0.913461
vt 0.625000 0.923077
vt 0.375000 0.923077
vt 0.625000 0.932692
vt 0.375000 0.932692
vt 0.625000 0.942308
vt 0.375000 0.942308
vt 0.625000 0.951923
vt 0.375000 0.951923
vt 0.625000 0.961538
vt 0.375000 0.961538
vt 0.625000 0.971154
vt 0.375000 0.971154
vt 0.625000 0.980769
vt 0.375000 0.980769
vt 0.625000 0.259615
vt 0.375000 0.259615
vt 0.625000 0.269231
vt 0.375000 0.269231
vt 0.625000 0.278846
vt 0.375000 0.278846
vt 0.625000 0.288462
vt 0.375000 0.288462
vt 0.625000 0.298077
vt 0.375000 0.298077
vt 0.625000 0.307692
vt 0.375000 0.307692
vt 0.625000 0.317308
vt 0.375000 0.317308
vt 0.625000 0.326923
vt 0.375000 0.326923
vt 0.625000 0.336538
vt 0.375000 0.336538
vt 0.625000 0.346154
vt 0.375000 0.346154
vt 0.625000 0.355769
vt 0.375000 0.355769
vt 0.625000 0.365385
vt 0.375000 0.365385
vt 0.625000 0.375000
vt 0.375000 0.375000
vt 0.625000 0.384615
vt 0.375000 0.384615
vt 0.625000 0.394231
vt 0.375000 0.394231
vt 0.625000 0.403846
vt 0.375000 0.403846
vt 0.625000 0.413462
vt 0.375000 0.413462
vt 0.625000 0.423077
vt 0.375000 0.423077
vt 0.625000 0.432692
vt 0.375000 0.432692
vt 0.625000 0.442308
vt 0.375000 0.442308
vt 0.625000 0.451923
vt 0.375000 0.451923
vt 0.625000 0.461538
vt 0.375000 0.461538
vt 0.625000 0.471154
vt 0.375000 0.471154
vt 0.625000 0.480769
vt 0.375000 0.480769
vn 0.9379 -0.0000 -0.3470
vn 0.0000 -1.0000 -0.0000
vn 0.8256 -0.0000 -0.5643
vn 0.0000 1.0000 -0.0000
vn 0.5761 0.0000 0.8174
vn 0.2602 -0.0000 0.9655
vn -0.5848 -0.0000 -0.8112
vn -0.8905 0.0000 -0.4550
vn -0.9802 0.0000 -0.1980
vn -0.9999 -0.0000 -0.0125
vn -0.9511 0.0000 0.3088
vn -0.7865 -0.0000 0.6176
vn -0.5844 -0.0000 0.8115
vn -0.4185 -0.0000 0.9082
vn -0.2965 -0.0000 0.9550
vn -0.2120 -0.0000 0.9773
vn -0.1346 -0.0000 0.9909
vn -0.0645 -0.0000 0.9979
vn -0.0325 -0.0000 0.9995
vn -0.0156 -0.0000 0.9999
vn -0.0046 -0.0000 1.0000
vn 0.0036 -0.0000 1.0000
vn 0.0118 -0.0000 0.9999
vn 0.0181 -0.0000 0.9998
vn 0.0225 -0.0000 0.9997
vn 0.0268 -0.0000 0.9996
vn 0.0317 -0.0000 0.9995
vn 0.0362 -0.0000 0.9993
vn 0.0410 -0.0000 0.9992
vn 0.0687 -0.0000 0.9976
vn 0.1644 -0.0000 0.9864
vn -0.2590 0.0000 -0.9659
vn -0.1645 0.0000 -0.9864
vn -0.0678 0.0000 -0.9977
vn -0.0410 0.0000 -0.9992
vn -0.0362 0.0000 -0.9993
vn -0.0317 0.0000 -0.9995
vn -0.0268 0.0000 -0.9996
vn -0.0225 0.0000 -0.9997
vn -0.0182 0.0000 -0.9998
vn -0.0119 0.0000 -0.9999
vn -0.0036 0.0000 -1.0000
vn 0.0046 0.0000 -1.0000
vn 0.0155 0.0000 -0.9999
vn 0.0324 0.0000 -0.9995
vn 0.0643 0.0000 -0.9979
vn 0.1347 0.0000 -0.9909
vn 0.2120 0.0000 -0.9773
vn 0.2961 0.0000 -0.9552
vn 0.4179 0.0000 -0.9085
vn 0.5832 0.0000 -0.8124
vn 0.7851 -0.0000 -0.6193
vn 0.9512 0.0000 -0.3087
vn 0.9999 0.0000 0.0161
vn 0.9802 0.0000 0.1981
vn 0.8974 0.0000 0.4411
usemtl None
s off
f 50/1/1 51/2/1 53/3/1 52/4/1
f 58/5/2 107/6/2 57/7/2 56/8/2
f 56/8/3 57/7/3 55/9/3 54/10/3
f 108/11/4 157/12/4 51/13/4 50/14/4
f 58/15/5 56/8/5 54/10/5 132/16/5
f 83/17/6 53/18/6 51/19/6 157/20/6
f 57/7/7 107/21/7 133/22/7 55/9/7
f 107/21/8 106/23/8 134/24/8 133/22/8
f 106/23/9 105/25/9 135/26/9 134/24/9
f 105/25/10 104/27/10 136/28/10 135/26/10
f 104/27/11 103/29/11 137/30/11 136/28/11
f 103/29/12 102/31/12 138/32/12 137/30/12
f 102/31/13 101/33/13 139/34/13 138/32/13
f 101/33/14 100/35/14 140/36/14 139/34/14
f 100/35/15 99/37/15 141/38/15 140/36/15
f 99/37/16 98/39/16 142/40/16 141/38/16
f 98/39/17 97/41/17 143/42/17 142/40/17
f 97/41/18 96/43/18 144/44/18 143/42/18
f 96/43/19 95/45/19 145/46/19 144/44/19
f 95/45/20 94/47/20 146/48/20 145/46/20
f 94/47/21 93/49/21 147/50/21 146/48/21
f 93/49/22 92/51/22 148/52/22 147/50/22
f 92/51/23 91/53/23 149/54/23 148/52/23
f 91/53/24 90/55/24 150/56/24 149/54/24
f 90/55/25 89/57/25 151/58/25 150/56/25
f 89/57/26 88/59/26 152/60/26 151/58/26
f 88/59/27 87/61/27 153/62/27 152/60/27
f 87/61/28 86/63/28 154/64/28 153/62/28
f 86/63/29 85/65/29 155/66/29 154/64/29
f 85/65/30 84/67/30 156/68/30 155/66/30
f 84/67/31 83/17/31 157/20/31 156/68/31
f 52/69/32 82/70/32 108/71/32 50/72/32
f 82/70/33 81/73/33 109/74/33 108/71/33
f 81/73/34 80/75/34 110/76/34 109/74/34
f 80/75/35 79/77/35 111/78/35 110/76/35
f 79/77/36 78/79/36 112/80/36 111/78/36
f 78/79/37 77/81/37 113/82/37 112/80/37
f 77/81/38 76/83/38 114/84/38 113/82/38
f 76/83/39 75/85/39 115/86/39 114/84/39
f 75/85/40 74/87/40 116/88/40 115/86/40
f 74/87/41 73/89/41 117/90/41 116/88/41
f 73/89/42 72/91/42 118/92/42 117/90/42
f 72/91/43 71/93/43 119/94/43 118/92/43
f 71/93/44 70/95/44 120/96/44 119/94/44
f 70/95/45 69/97/45 121/98/45 120/96/45
f 69/97/46 68/99/46 122/100/46 121/98/46
f 68/99/47 67/101/47 123/102/47 122/100/47
f 67/101/48 66/103/48 124/104/48 123/102/48
f 66/103/49 65/105/49 125/106/49 124/104/49
f 65/105/50 64/107/50 126/108/50 125/106/50
f 64/107/51 63/109/51 127/110/51 126/108/51
f 63/109/52 62/111/52 128/112/52 127/110/52
f 62/111/53 61/113/53 129/114/53 128/112/53
f 61/113/54 60/115/54 130/116/54 129/114/54
f 60/115/55 59/117/55 131/118/55 130/116/55
f 59/117/56 58/15/56 132/16/56 131/118/56
f 54/10/4 55/9/4 133/119/4 132/120/4
f 132/120/4 133/119/4 134/121/4 131/122/4
f 131/122/4 134/121/4 135/123/4 130/124/4
f 130/124/4 135/123/4 136/125/4 129/126/4
f 129/126/4 136/125/4 137/127/4 128/128/4
f 128/128/4 137/127/4 138/129/4 127/130/4
f 127/130/4 138/129/4 139/131/4 126/132/4
f 126/132/4 139/131/4 140/133/4 125/134/4
f 125/134/4 140/133/4 141/135/4 124/136/4
f 124/136/4 141/135/4 142/137/4 123/138/4
f 123/138/4 142/137/4 143/139/4 122/140/4
f 122/140/4 143/139/4 144/141/4 121/142/4
f 121/142/4 144/141/4 145/143/4 120/144/4
f 120/144/4 145/143/4 146/145/4 119/146/4
f 119/146/4 146/145/4 147/147/4 118/148/4
f 118/148/4 147/147/4 148/149/4 117/150/4
f 117/150/4 148/149/4 149/151/4 116/152/4
f 116/152/4 149/151/4 150/153/4 115/154/4
f 115/154/4 150/153/4 151/155/4 114/156/4
f 114/156/4 151/155/4 152/157/4 113/158/4
f 113/158/4 152/157/4 153/159/4 112/160/4
f 112/160/4 153/159/4 154/161/4 111/162/4
f 111/162/4 154/161/4 155/163/4 110/164/4
f 110/164/4 155/163/4 156/165/4 109/166/4
f 109/166/4 156/165/4 157/12/4 108/11/4
f 52/4/2 53/3/2 83/167/2 82/168/2
f 82/168/2 83/167/2 84/169/2 81/170/2
f 81/170/2 84/169/2 85/171/2 80/172/2
f 80/172/2 85/171/2 86/173/2 79/174/2
f 79/174/2 86/173/2 87/175/2 78/176/2
f 78/176/2 87/175/2 88/177/2 77/178/2
f 77/178/2 88/177/2 89/179/2 76/180/2
f 76/180/2 89/179/2 90/181/2 75/182/2
f 75/182/2 90/181/2 91/183/2 74/184/2
f 74/184/2 91/183/2 92/185/2 73/186/2
f 73/186/2 92/185/2 93/187/2 72/188/2
f 72/188/2 93/187/2 94/189/2 71/190/2
f 71/190/2 94/189/2 95/191/2 70/192/2
f 70/192/2 95/191/2 96/193/2 69/194/2
f 69/194/2 96/193/2 97/195/2 68/196/2
f 68/196/2 97/195/2 98/197/2 67/198/2
f 67/198/2 98/197/2 99/199/2 66/200/2
f 66/200/2 99/199/2 100/201/2 65/202/2
f 65/202/2 100/201/2 101/203/2 64/204/2
f 64/204/2 101/203/2 102/205/2 63/206/2
f 63/206/2 102/205/2 103/207/2 62/208/2
f 62/208/2 103/207/2 104/209/2 61/210/2
f 61/210/2 104/209/2 105/211/2 60/212/2
f 60/212/2 105/211/2 106/213/2 59/214/2
f 59/214/2 106/213/2 107/6/2 58/5/2
