# Blender v2.93.0 OBJ File: 'EdgeFold0.blend'
# www.blender.org
mtllib EdgeFold0.mtl
o BezierCurve_BezierCurve.001
v -3.565689 0.000000 -1.261077
v -3.676439 0.000000 -1.214648
v -3.770480 0.000000 -1.177599
v -3.850207 0.000000 -1.147170
v -3.918012 0.000000 -1.120603
v -3.976291 0.000000 -1.095141
v -4.027438 0.000000 -1.068024
v -4.073846 0.000000 -1.036496
v -4.117910 0.000000 -0.997796
v -4.162023 0.000000 -0.949168
v -4.208580 0.000000 -0.887852
v -4.259975 0.000000 -0.811091
v -4.318601 0.000000 -0.716127
v -4.393414 0.000000 -0.574248
v -4.437980 0.000000 -0.449127
v -4.453949 0.000000 -0.339454
v -4.442971 0.000000 -0.243919
v -4.406695 0.000000 -0.161214
v -4.346770 0.000000 -0.090030
v -4.264846 0.000000 -0.029057
v -4.162572 0.000000 0.023013
v -4.041598 0.000000 0.067490
v -3.903573 0.000000 0.105683
v -3.750147 0.000000 0.138901
v -3.582970 0.000000 0.168454
v -3.409952 0.000000 0.188648
v -3.186874 0.000000 0.202830
v -2.924375 0.000000 0.211718
v -2.633093 0.000000 0.216030
v -2.323667 0.000000 0.216482
v -2.006737 0.000000 0.213792
v -1.692940 0.000000 0.208679
v -1.392915 0.000000 0.201858
v -1.117301 0.000000 0.194049
v -0.876738 0.000000 0.185969
v -0.681864 0.000000 0.178335
v -0.543317 0.000000 0.171865
v -0.514969 0.000000 0.169701
v -0.480286 0.000000 0.165954
v -0.440554 0.000000 0.160817
v -0.397054 0.000000 0.154482
v -0.351070 0.000000 0.147139
v -0.303886 0.000000 0.138981
v -0.256785 0.000000 0.130200
v -0.211051 0.000000 0.120987
v -0.167967 0.000000 0.111535
v -0.128816 0.000000 0.102034
v -0.094883 0.000000 0.092677
v -0.067449 0.000000 0.083656
l 1 2
l 2 3
l 3 4
l 4 5
l 5 6
l 6 7
l 7 8
l 8 9
l 9 10
l 10 11
l 11 12
l 12 13
l 13 14
l 14 15
l 15 16
l 16 17
l 17 18
l 18 19
l 19 20
l 20 21
l 21 22
l 22 23
l 23 24
l 24 25
l 25 26
l 26 27
l 27 28
l 28 29
l 29 30
l 30 31
l 31 32
l 32 33
l 33 34
l 34 35
l 35 36
l 36 37
l 37 38
l 38 39
l 39 40
l 40 41
l 41 42
l 42 43
l 43 44
l 44 45
l 45 46
l 46 47
l 47 48
l 48 49
o Cube_Cube.001
v -0.074286 2.376640 0.015108
v -0.027580 2.376640 0.141340
v -0.074285 -2.376640 0.015108
v -0.027579 -2.376640 0.141340
v -3.658012 2.376640 -1.149579
v -3.708555 2.376640 -1.274325
v -3.658012 -2.376640 -1.149580
v -3.708555 -2.376640 -1.274325
v -3.868772 -2.376640 -1.067622
v -4.047317 -2.376641 -0.970240
v -4.179280 -2.376640 -0.810653
v -4.291180 -2.376640 -0.623857
v -4.372944 -2.376640 -0.430769
v -4.370713 -2.376640 -0.246190
v -4.255545 -2.376640 -0.106021
v -4.070204 -2.376640 -0.014729
v -3.861114 -2.376640 0.046033
v -3.643832 -2.376641 0.089356
v -3.424546 -2.376641 0.119203
v -3.201997 -2.376641 0.134439
v -2.977585 -2.376641 0.142581
v -2.752526 -2.376641 0.146957
v -2.527164 -2.376640 0.148887
v -2.301631 -2.376640 0.148995
v -2.075973 -2.376640 0.147080
v -1.850274 -2.376640 0.143936
v -1.624552 -2.376641 0.139809
v -1.398823 -2.376640 0.134678
v -1.173121 -2.376640 0.128306
v -0.947478 -2.376641 0.121009
v -0.722004 -2.376640 0.112558
v -0.500757 -2.376640 0.100477
v -0.282687 -2.376640 0.066572
v -0.257580 -2.376641 0.198806
v -0.486234 -2.376640 0.234287
v -0.716399 -2.376640 0.247038
v -0.942792 -2.376641 0.255524
v -1.169098 -2.376640 0.262842
v -1.395400 -2.376640 0.269230
v -1.621739 -2.376641 0.274375
v -1.848125 -2.376640 0.278515
v -2.074564 -2.376640 0.281668
v -2.301075 -2.376640 0.283590
v -2.527724 -2.376640 0.283482
v -2.754522 -2.376641 0.281538
v -2.981548 -2.376641 0.277119
v -3.209008 -2.376641 0.268853
v -3.437532 -2.376640 0.253171
v -3.666136 -2.376640 0.222091
v -3.892226 -2.376640 0.176984
v -4.116899 -2.376641 0.111507
v -4.334777 -2.376640 0.002783
v -4.497876 -2.376640 -0.202081
v -4.503739 -2.376640 -0.462532
v -4.410974 -2.376640 -0.685220
v -4.290751 -2.376640 -0.886088
v -4.134505 -2.376640 -1.072779
v -3.919232 -2.376640 -1.192401
v -0.282689 2.376641 0.066572
v -0.500758 2.376640 0.100476
v -0.722006 2.376640 0.112558
v -0.947480 2.376641 0.121009
v -1.173122 2.376640 0.128306
v -1.398825 2.376640 0.134677
v -1.624554 2.376641 0.139809
v -1.850274 2.376640 0.143935
v -2.075974 2.376640 0.147079
v -2.301633 2.376640 0.148995
v -2.527166 2.376640 0.148887
v -2.752527 2.376641 0.146957
v -2.977587 2.376641 0.142581
v -3.201998 2.376641 0.134439
v -3.424547 2.376640 0.119203
v -3.643833 2.376640 0.089356
v -3.861114 2.376640 0.046033
v -4.070205 2.376641 -0.014730
v -4.255546 2.376640 -0.106022
v -4.370713 2.376640 -0.246192
v -4.372943 2.376640 -0.430770
v -4.291179 2.376640 -0.623857
v -4.179280 2.376640 -0.810653
v -4.047317 2.376640 -0.970239
v -3.868772 2.376640 -1.067621
v -3.919232 2.376640 -1.192400
v -4.134504 2.376641 -1.072778
v -4.290751 2.376640 -0.886087
v -4.410974 2.376640 -0.685220
v -4.503739 2.376640 -0.462531
v -4.497876 2.376640 -0.202082
v -4.334776 2.376640 0.002783
v -4.116899 2.376640 0.111507
v -3.892226 2.376640 0.176984
v -3.666137 2.376641 0.222091
v -3.437533 2.376641 0.253171
v -3.209008 2.376641 0.268853
v -2.981548 2.376641 0.277119
v -2.754523 2.376641 0.281538
v -2.527725 2.376640 0.283481
v -2.301075 2.376640 0.283590
v -2.074565 2.376640 0.281668
v -1.848126 2.376640 0.278514
v -1.621739 2.376641 0.274375
v -1.395400 2.376640 0.269230
v -1.169099 2.376640 0.262842
v -0.942793 2.376641 0.255524
v -0.716400 2.376640 0.247037
v -0.486235 2.376640 0.234286
v -0.257580 2.376640 0.198805
vt 0.375000 0.000000
vt 0.625000 0.000000
vt 0.625000 0.250000
vt 0.375000 0.250000
vt 0.375000 0.490385
vt 0.625000 0.490385
vt 0.625000 0.500000
vt 0.375000 0.500000
vt 0.625000 0.750000
vt 0.375000 0.750000
vt 0.375000 0.990385
vt 0.625000 0.990385
vt 0.625000 1.000000
vt 0.375000 1.000000
vt 0.365385 0.500000
vt 0.365385 0.750000
vt 0.865385 0.500000
vt 0.875000 0.500000
vt 0.875000 0.750000
vt 0.865385 0.750000
vt 0.634615 0.500000
vt 0.634615 0.750000
vt 0.644231 0.500000
vt 0.644231 0.750000
vt 0.653846 0.500000
vt 0.653846 0.750000
vt 0.663462 0.500000
vt 0.663462 0.750000
vt 0.673077 0.500000
vt 0.673077 0.750000
vt 0.682692 0.500000
vt 0.682692 0.750000
vt 0.692308 0.500000
vt 0.692308 0.750000
vt 0.701923 0.500000
vt 0.701923 0.750000
vt 0.711538 0.500000
vt 0.711539 0.750000
vt 0.721154 0.500000
vt 0.721154 0.750000
vt 0.730769 0.500000
vt 0.730769 0.750000
vt 0.740385 0.500000
vt 0.740385 0.750000
vt 0.750000 0.500000
vt 0.750000 0.750000
vt 0.759615 0.500000
vt 0.759615 0.750000
vt 0.769231 0.500000
vt 0.769231 0.750000
vt 0.778846 0.500000
vt 0.778846 0.750000
vt 0.788461 0.500000
vt 0.788462 0.750000
vt 0.798077 0.500000
vt 0.798077 0.750000
vt 0.807692 0.500000
vt 0.807692 0.750000
vt 0.817308 0.500000
vt 0.817308 0.750000
vt 0.826923 0.500000
vt 0.826923 0.750000
vt 0.836538 0.500000
vt 0.836539 0.750000
vt 0.846154 0.500000
vt 0.846154 0.750000
vt 0.855769 0.500000
vt 0.855769 0.750000
vt 0.125000 0.500000
vt 0.134615 0.500000
vt 0.134615 0.750000
vt 0.125000 0.750000
vt 0.144231 0.500000
vt 0.144231 0.750000
vt 0.153846 0.500000
vt 0.153846 0.750000
vt 0.163462 0.500000
vt 0.163462 0.750000
vt 0.173077 0.500000
vt 0.173077 0.750000
vt 0.182692 0.500000
vt 0.182692 0.750000
vt 0.192308 0.500000
vt 0.192308 0.750000
vt 0.201923 0.500000
vt 0.201923 0.750000
vt 0.211538 0.500000
vt 0.211538 0.750000
vt 0.221154 0.500000
vt 0.221154 0.750000
vt 0.230769 0.500000
vt 0.230769 0.750000
vt 0.240385 0.500000
vt 0.240385 0.750000
vt 0.250000 0.500000
vt 0.250000 0.750000
vt 0.259615 0.500000
vt 0.259615 0.750000
vt 0.269231 0.500000
vt 0.269231 0.750000
vt 0.278846 0.500000
vt 0.278846 0.750000
vt 0.288462 0.500000
vt 0.288462 0.750000
vt 0.298077 0.500000
vt 0.298077 0.750000
vt 0.307692 0.500000
vt 0.307692 0.750000
vt 0.317308 0.500000
vt 0.317308 0.750000
vt 0.326923 0.500000
vt 0.326923 0.750000
vt 0.336538 0.500000
vt 0.336538 0.750000
vt 0.346154 0.500000
vt 0.346154 0.750000
vt 0.355769 0.500000
vt 0.355769 0.750000
vt 0.625000 0.759615
vt 0.375000 0.759615
vt 0.625000 0.769231
vt 0.375000 0.769231
vt 0.625000 0.778846
vt 0.375000 0.778846
vt 0.625000 0.788462
vt 0.375000 0.788462
vt 0.625000 0.798077
vt 0.375000 0.798077
vt 0.625000 0.807692
vt 0.375000 0.807692
vt 0.625000 0.817308
vt 0.375000 0.817308
vt 0.625000 0.826923
vt 0.375000 0.826923
vt 0.625000 0.836538
vt 0.375000 0.836538
vt 0.625000 0.846154
vt 0.375000 0.846154
vt 0.625000 0.855769
vt 0.375000 0.855769
vt 0.625000 0.865385
vt 0.375000 0.865385
vt 0.625000 0.875000
vt 0.375000 0.875000
vt 0.625000 0.884615
vt 0.375000 0.884615
vt 0.625000 0.894231
vt 0.375000 0.894231
vt 0.625000 0.903846
vt 0.375000 0.903846
vt 0.625000 0.913461
vt 0.375000 0.913461
vt 0.625000 0.923077
vt 0.375000 0.923077
vt 0.625000 0.932692
vt 0.375000 0.932692
vt 0.625000 0.942308
vt 0.375000 0.942308
vt 0.625000 0.951923
vt 0.375000 0.951923
vt 0.625000 0.961538
vt 0.375000 0.961538
vt 0.625000 0.971154
vt 0.375000 0.971154
vt 0.625000 0.980769
vt 0.375000 0.980769
vt 0.625000 0.259615
vt 0.375000 0.259615
vt 0.625000 0.269231
vt 0.375000 0.269231
vt 0.625000 0.278846
vt 0.375000 0.278846
vt 0.625000 0.288462
vt 0.375000 0.288462
vt 0.625000 0.298077
vt 0.375000 0.298077
vt 0.625000 0.307692
vt 0.375000 0.307692
vt 0.625000 0.317308
vt 0.375000 0.317308
vt 0.625000 0.326923
vt 0.375000 0.326923
vt 0.625000 0.336538
vt 0.375000 0.336538
vt 0.625000 0.346154
vt 0.375000 0.346154
vt 0.625000 0.355769
vt 0.375000 0.355769
vt 0.625000 0.365385
vt 0.375000 0.365385
vt 0.625000 0.375000
vt 0.375000 0.375000
vt 0.625000 0.384615
vt 0.375000 0.384615
vt 0.625000 0.394231
vt 0.375000 0.394231
vt 0.625000 0.403846
vt 0.375000 0.403846
vt 0.625000 0.413462
vt 0.375000 0.413462
vt 0.625000 0.423077
vt 0.375000 0.423077
vt 0.625000 0.432692
vt 0.375000 0.432692
vt 0.625000 0.442308
vt 0.375000 0.442308
vt 0.625000 0.451923
vt 0.375000 0.451923
vt 0.625000 0.461538
vt 0.375000 0.461538
vt 0.625000 0.471154
vt 0.375000 0.471154
vt 0.625000 0.480769
vt 0.375000 0.480769
vn 0.9379 0.0000 -0.3470
vn -0.0000 -1.0000 0.0000
vn 0.9268 0.0000 -0.3755
vn 0.0000 1.0000 -0.0000
vn 0.3624 -0.0000 0.9320
vn 0.2424 0.0000 0.9702
vn -0.3624 0.0000 -0.9320
vn -0.4857 0.0000 -0.8741
vn -0.7669 0.0000 -0.6418
vn -0.8581 0.0000 -0.5136
vn -0.9231 0.0000 -0.3845
vn -0.9997 -0.0000 0.0225
vn -0.7823 0.0000 0.6228
vn -0.4465 0.0000 0.8948
vn -0.2798 0.0000 0.9601
vn -0.1957 0.0000 0.9807
vn -0.1347 0.0000 0.9909
vn -0.0685 0.0000 0.9977
vn -0.0363 0.0000 0.9993
vn -0.0195 0.0000 0.9998
vn -0.0086 0.0000 1.0000
vn -0.0005 0.0000 1.0000
vn 0.0085 0.0000 1.0000
vn 0.0139 0.0000 0.9999
vn 0.0183 0.0000 0.9998
vn 0.0227 0.0000 0.9997
vn 0.0282 0.0000 0.9996
vn 0.0323 0.0000 0.9995
vn 0.0375 0.0000 0.9993
vn 0.0553 0.0000 0.9985
vn 0.1533 0.0000 0.9882
vn -0.2397 -0.0000 -0.9708
vn -0.1536 -0.0000 -0.9881
vn -0.0545 -0.0000 -0.9985
vn -0.0375 -0.0000 -0.9993
vn -0.0323 -0.0000 -0.9995
vn -0.0282 -0.0000 -0.9996
vn -0.0227 -0.0000 -0.9997
vn -0.0183 -0.0000 -0.9998
vn -0.0139 -0.0000 -0.9999
vn -0.0085 -0.0000 -1.0000
vn 0.0005 -0.0000 -1.0000
vn 0.0086 -0.0000 -1.0000
vn 0.0194 -0.0000 -0.9998
vn 0.0363 -0.0000 -0.9993
vn 0.0683 -0.0000 -0.9977
vn 0.1349 -0.0000 -0.9909
vn 0.1955 -0.0000 -0.9807
vn 0.2791 -0.0000 -0.9603
vn 0.4419 -0.0000 -0.8971
vn 0.7726 -0.0000 -0.6348
vn 0.9999 -0.0000 -0.0121
vn 0.9208 -0.0000 0.3899
vn 0.8579 -0.0000 0.5139
vn 0.7706 0.0000 0.6373
vn 0.4788 -0.0000 0.8779
usemtl None
s off
f 50/1/1 51/2/1 53/3/1 52/4/1
f 58/5/2 107/6/2 57/7/2 56/8/2
f 56/8/3 57/7/3 55/9/3 54/10/3
f 108/11/4 157/12/4 51/13/4 50/14/4
f 58/15/5 56/8/5 54/10/5 132/16/5
f 83/17/6 53/18/6 51/19/6 157/20/6
f 57/7/7 107/21/7 133/22/7 55/9/7
f 107/21/8 106/23/8 134/24/8 133/22/8
f 106/23/9 105/25/9 135/26/9 134/24/9
f 105/25/10 104/27/10 136/28/10 135/26/10
f 104/27/11 103/29/11 137/30/11 136/28/11
f 103/29/12 102/31/12 138/32/12 137/30/12
f 102/31/13 101/33/13 139/34/13 138/32/13
f 101/33/14 100/35/14 140/36/14 139/34/14
f 100/35/15 99/37/15 141/38/15 140/36/15
f 99/37/16 98/39/16 142/40/16 141/38/16
f 98/39/17 97/41/17 143/42/17 142/40/17
f 97/41/18 96/43/18 144/44/18 143/42/18
f 96/43/19 95/45/19 145/46/19 144/44/19
f 95/45/20 94/47/20 146/48/20 145/46/20
f 94/47/21 93/49/21 147/50/21 146/48/21
f 93/49/22 92/51/22 148/52/22 147/50/22
f 92/51/23 91/53/23 149/54/23 148/52/23
f 91/53/24 90/55/24 150/56/24 149/54/24
f 90/55/25 89/57/25 151/58/25 150/56/25
f 89/57/26 88/59/26 152/60/26 151/58/26
f 88/59/27 87/61/27 153/62/27 152/60/27
f 87/61/28 86/63/28 154/64/28 153/62/28
f 86/63/29 85/65/29 155/66/29 154/64/29
f 85/65/30 84/67/30 156/68/30 155/66/30
f 84/67/31 83/17/31 157/20/31 156/68/31
f 52/69/32 82/70/32 108/71/32 50/72/32
f 82/70/33 81/73/33 109/74/33 108/71/33
f 81/73/34 80/75/34 110/76/34 109/74/34
f 80/75/35 79/77/35 111/78/35 110/76/35
f 79/77/36 78/79/36 112/80/36 111/78/36
f 78/79/37 77/81/37 113/82/37 112/80/37
f 77/81/38 76/83/38 114/84/38 113/82/38
f 76/83/39 75/85/39 115/86/39 114/84/39
f 75/85/40 74/87/40 116/88/40 115/86/40
f 74/87/41 73/89/41 117/90/41 116/88/41
f 73/89/42 72/91/42 118/92/42 117/90/42
f 72/91/43 71/93/43 119/94/43 118/92/43
f 71/93/44 70/95/44 120/96/44 119/94/44
f 70/95/45 69/97/45 121/98/45 120/96/45
f 69/97/46 68/99/46 122/100/46 121/98/46
f 68/99/47 67/101/47 123/102/47 122/100/47
f 67/101/48 66/103/48 124/104/48 123/102/48
f 66/103/49 65/105/49 125/106/49 124/104/49
f 65/105/50 64/107/50 126/108/50 125/106/50
f 64/107/51 63/109/51 127/110/51 126/108/51
f 63/109/52 62/111/52 128/112/52 127/110/52
f 62/111/53 61/113/53 129/114/53 128/112/53
f 61/113/54 60/115/54 130/116/54 129/114/54
f 60/115/55 59/117/55 131/118/55 130/116/55
f 59/117/56 58/15/56 132/16/56 131/118/56
f 54/10/4 55/9/4 133/119/4 132/120/4
f 132/120/4 133/119/4 134/121/4 131/122/4
f 131/122/4 134/121/4 135/123/4 130/124/4
f 130/124/4 135/123/4 136/125/4 129/126/4
f 129/126/4 136/125/4 137/127/4 128/128/4
f 128/128/4 137/127/4 138/129/4 127/130/4
f 127/130/4 138/129/4 139/131/4 126/132/4
f 126/132/4 139/131/4 140/133/4 125/134/4
f 125/134/4 140/133/4 141/135/4 124/136/4
f 124/136/4 141/135/4 142/137/4 123/138/4
f 123/138/4 142/137/4 143/139/4 122/140/4
f 122/140/4 143/139/4 144/141/4 121/142/4
f 121/142/4 144/141/4 145/143/4 120/144/4
f 120/144/4 145/143/4 146/145/4 119/146/4
f 119/146/4 146/145/4 147/147/4 118/148/4
f 118/148/4 147/147/4 148/149/4 117/150/4
f 117/150/4 148/149/4 149/151/4 116/152/4
f 116/152/4 149/151/4 150/153/4 115/154/4
f 115/154/4 150/153/4 151/155/4 114/156/4
f 114/156/4 151/155/4 152/157/4 113/158/4
f 113/158/4 152/157/4 153/159/4 112/160/4
f 112/160/4 153/159/4 154/161/4 111/162/4
f 111/162/4 154/161/4 155/163/4 110/164/4
f 110/164/4 155/163/4 156/165/4 109/166/4
f 109/166/4 156/165/4 157/12/4 108/11/4
f 52/4/2 53/3/2 83/167/2 82/168/2
f 82/168/2 83/167/2 84/169/2 81/170/2
f 81/170/2 84/169/2 85/171/2 80/172/2
f 80/172/2 85/171/2 86/173/2 79/174/2
f 79/174/2 86/173/2 87/175/2 78/176/2
f 78/176/2 87/175/2 88/177/2 77/178/2
f 77/178/2 88/177/2 89/179/2 76/180/2
f 76/180/2 89/179/2 90/181/2 75/182/2
f 75/182/2 90/181/2 91/183/2 74/184/2
f 74/184/2 91/183/2 92/185/2 73/186/2
f 73/186/2 92/185/2 93/187/2 72/188/2
f 72/188/2 93/187/2 94/189/2 71/190/2
f 71/190/2 94/189/2 95/191/2 70/192/2
f 70/192/2 95/191/2 96/193/2 69/194/2
f 69/194/2 96/193/2 97/195/2 68/196/2
f 68/196/2 97/195/2 98/197/2 67/198/2
f 67/198/2 98/197/2 99/199/2 66/200/2
f 66/200/2 99/199/2 100/201/2 65/202/2
f 65/202/2 100/201/2 101/203/2 64/204/2
f 64/204/2 101/203/2 102/205/2 63/206/2
f 63/206/2 102/205/2 103/207/2 62/208/2
f 62/208/2 103/207/2 104/209/2 61/210/2
f 61/210/2 104/209/2 105/211/2 60/212/2
f 60/212/2 105/211/2 106/213/2 59/214/2
f 59/214/2 106/213/2 107/6/2 58/5/2
