# Blender v2.93.0 OBJ File: 'Scroll3.blend'
# www.blender.org
mtllib Scroll3.mtl
o BezierCurve_BezierCurve.001
v -2.640303 0.000000 -0.891883
v -2.819335 0.000000 -0.893756
v -2.996181 0.000000 -0.898103
v -3.169108 0.000000 -0.903016
v -3.336386 0.000000 -0.906589
v -3.496282 0.000000 -0.906915
v -3.647065 0.000000 -0.902087
v -3.787004 0.000000 -0.890198
v -3.914367 0.000000 -0.869341
v -4.027423 0.000000 -0.837609
v -4.124440 0.000000 -0.793094
v -4.203688 0.000000 -0.733890
v -4.263434 0.000000 -0.658090
v -4.306595 0.000000 -0.534647
v -4.284834 0.000000 -0.432307
v -4.206902 0.000000 -0.349056
v -4.081553 0.000000 -0.282877
v -3.917539 0.000000 -0.231756
v -3.723614 0.000000 -0.193676
v -3.508530 0.000000 -0.166621
v -3.281040 0.000000 -0.148577
v -3.049898 0.000000 -0.137527
v -2.823855 0.000000 -0.131456
v -2.611665 0.000000 -0.128349
v -2.422080 0.000000 -0.126188
v -2.263854 0.000000 -0.122758
v -2.082770 0.000000 -0.117943
v -1.884917 0.000000 -0.114116
v -1.676389 0.000000 -0.113650
v -1.463277 0.000000 -0.118918
v -1.251672 0.000000 -0.132294
v -1.047665 0.000000 -0.156150
v -0.857350 0.000000 -0.192859
v -0.686817 0.000000 -0.244795
v -0.542158 0.000000 -0.314330
v -0.429465 0.000000 -0.403838
v -0.354830 0.000000 -0.515691
v -0.331144 0.000000 -0.601286
v -0.331739 0.000000 -0.686135
v -0.353010 0.000000 -0.769047
v -0.391353 0.000000 -0.848831
v -0.443163 0.000000 -0.924294
v -0.504836 0.000000 -0.994247
v -0.572767 0.000000 -1.057497
v -0.643353 0.000000 -1.112853
v -0.712989 0.000000 -1.159123
v -0.778070 0.000000 -1.195116
v -0.834993 0.000000 -1.219641
v -0.880153 0.000000 -1.231507
l 1 2
l 2 3
l 3 4
l 4 5
l 5 6
l 6 7
l 7 8
l 8 9
l 9 10
l 10 11
l 11 12
l 12 13
l 13 14
l 14 15
l 15 16
l 16 17
l 17 18
l 18 19
l 19 20
l 20 21
l 21 22
l 22 23
l 23 24
l 24 25
l 25 26
l 26 27
l 27 28
l 28 29
l 29 30
l 30 31
l 31 32
l 32 33
l 33 34
l 34 35
l 35 36
l 36 37
l 37 38
l 38 39
l 39 40
l 40 41
l 41 42
l 42 43
l 43 44
l 44 45
l 45 46
l 46 47
l 47 48
l 48 49
o Cube_Cube.001
v -0.863117 2.308400 -1.157497
v -0.824092 2.308400 -1.286311
v -0.863117 -2.308400 -1.157497
v -0.824092 -2.308400 -1.286311
v -2.605711 2.308399 -0.824224
v -2.605711 2.308399 -0.958820
v -2.605711 -2.308399 -0.824224
v -2.605711 -2.308399 -0.958820
v -2.877324 -2.308399 -0.827864
v -3.147813 -2.308400 -0.835086
v -3.416236 -2.308400 -0.839454
v -3.681241 -2.308399 -0.831646
v -3.935557 -2.308400 -0.793498
v -4.148115 -2.308400 -0.691829
v -4.233276 -2.308400 -0.511276
v -4.101954 -2.308399 -0.369738
v -3.864142 -2.308399 -0.289807
v -3.604381 -2.308399 -0.246505
v -3.339190 -2.308400 -0.220698
v -3.071647 -2.308399 -0.205940
v -2.802838 -2.308400 -0.198453
v -2.532969 -2.308399 -0.194754
v -2.262093 -2.308400 -0.190033
v -1.992352 -2.308400 -0.183504
v -1.723703 -2.308400 -0.181051
v -1.456199 -2.308399 -0.186788
v -1.191146 -2.308399 -0.207127
v -0.931128 -2.308399 -0.247147
v -0.685176 -2.308399 -0.320195
v -0.480833 -2.308400 -0.448007
v -0.398753 -2.308399 -0.645308
v -0.478072 -2.308400 -0.856243
v -0.652216 -2.308399 -1.034279
v -0.569327 -2.308400 -1.140323
v -0.367618 -2.308400 -0.933158
v -0.264158 -2.308400 -0.645936
v -0.382252 -2.308400 -0.356368
v -0.631686 -2.308400 -0.196685
v -0.902398 -2.308399 -0.115653
v -1.176238 -2.308399 -0.073360
v -1.449993 -2.308399 -0.052336
v -1.722857 -2.308400 -0.046458
v -1.994705 -2.308400 -0.048929
v -2.265342 -2.308400 -0.055476
v -2.534916 -2.308399 -0.060172
v -2.805534 -2.308400 -0.063884
v -3.077040 -2.308399 -0.071452
v -3.349168 -2.308400 -0.086472
v -3.621835 -2.308399 -0.113046
v -3.894916 -2.308399 -0.158776
v -4.166805 -2.308400 -0.251796
v -4.367268 -2.308399 -0.498540
v -4.239107 -2.308399 -0.791008
v -3.970662 -2.308399 -0.923435
v -3.691552 -2.308400 -0.965846
v -3.416457 -2.308400 -0.974050
v -3.144436 -2.308399 -0.969640
v -2.874580 -2.308399 -0.962432
v -0.652215 2.308400 -1.034278
v -0.478072 2.308400 -0.856243
v -0.398753 2.308400 -0.645308
v -0.480834 2.308400 -0.448007
v -0.685177 2.308400 -0.320195
v -0.931128 2.308399 -0.247146
v -1.191147 2.308399 -0.207127
v -1.456200 2.308399 -0.186788
v -1.723703 2.308400 -0.181051
v -1.992353 2.308400 -0.183504
v -2.262094 2.308400 -0.190033
v -2.532969 2.308399 -0.194754
v -2.802838 2.308400 -0.198453
v -3.071648 2.308399 -0.205940
v -3.339190 2.308400 -0.220698
v -3.604382 2.308399 -0.246505
v -3.864142 2.308399 -0.289807
v -4.101954 2.308400 -0.369738
v -4.233276 2.308399 -0.511276
v -4.148115 2.308399 -0.691829
v -3.935556 2.308399 -0.793498
v -3.681240 2.308400 -0.831646
v -3.416236 2.308400 -0.839454
v -3.147813 2.308399 -0.835086
v -2.877324 2.308399 -0.827864
v -2.874580 2.308399 -0.962432
v -3.144436 2.308400 -0.969640
v -3.416457 2.308400 -0.974050
v -3.691553 2.308399 -0.965846
v -3.970663 2.308400 -0.923435
v -4.239107 2.308400 -0.791007
v -4.367268 2.308400 -0.498539
v -4.166805 2.308399 -0.251796
v -3.894915 2.308399 -0.158776
v -3.621834 2.308399 -0.113046
v -3.349167 2.308400 -0.086472
v -3.077040 2.308399 -0.071452
v -2.805534 2.308400 -0.063884
v -2.534915 2.308399 -0.060172
v -2.265341 2.308400 -0.055476
v -1.994704 2.308400 -0.048929
v -1.722857 2.308400 -0.046458
v -1.449993 2.308399 -0.052336
v -1.176237 2.308399 -0.073360
v -0.902398 2.308399 -0.115653
v -0.631685 2.308399 -0.196685
v -0.382251 2.308400 -0.356369
v -0.264158 2.308399 -0.645936
v -0.367618 2.308400 -0.933158
v -0.569327 2.308399 -1.140324
vt 0.375000 0.000000
vt 0.625000 0.000000
vt 0.625000 0.250000
vt 0.375000 0.250000
vt 0.375000 0.490385
vt 0.625000 0.490385
vt 0.625000 0.500000
vt 0.375000 0.500000
vt 0.625000 0.750000
vt 0.375000 0.750000
vt 0.375000 0.990385
vt 0.625000 0.990385
vt 0.625000 1.000000
vt 0.375000 1.000000
vt 0.365385 0.500000
vt 0.365385 0.750000
vt 0.865385 0.500000
vt 0.875000 0.500000
vt 0.875000 0.750000
vt 0.865385 0.750000
vt 0.634615 0.500000
vt 0.634615 0.750000
vt 0.644231 0.500000
vt 0.644231 0.750000
vt 0.653846 0.500000
vt 0.653846 0.750000
vt 0.663462 0.500000
vt 0.663462 0.750000
vt 0.673077 0.500000
vt 0.673077 0.750000
vt 0.682692 0.500000
vt 0.682692 0.750000
vt 0.692308 0.500000
vt 0.692308 0.750000
vt 0.701923 0.500000
vt 0.701923 0.750000
vt 0.711538 0.500000
vt 0.711539 0.750000
vt 0.721154 0.500000
vt 0.721154 0.750000
vt 0.730769 0.500000
vt 0.730769 0.750000
vt 0.740385 0.500000
vt 0.740385 0.750000
vt 0.750000 0.500000
vt 0.750000 0.750000
vt 0.759615 0.500000
vt 0.759615 0.750000
vt 0.769231 0.500000
vt 0.769231 0.750000
vt 0.778846 0.500000
vt 0.778846 0.750000
vt 0.788461 0.500000
vt 0.788462 0.750000
vt 0.798077 0.500000
vt 0.798077 0.750000
vt 0.807692 0.500000
vt 0.807692 0.750000
vt 0.817308 0.500000
vt 0.817308 0.750000
vt 0.826923 0.500000
vt 0.826923 0.750000
vt 0.836538 0.500000
vt 0.836539 0.750000
vt 0.846154 0.500000
vt 0.846154 0.750000
vt 0.855769 0.500000
vt 0.855769 0.750000
vt 0.125000 0.500000
vt 0.134615 0.500000
vt 0.134615 0.750000
vt 0.125000 0.750000
vt 0.144231 0.500000
vt 0.144231 0.750000
vt 0.153846 0.500000
vt 0.153846 0.750000
vt 0.163462 0.500000
vt 0.163462 0.750000
vt 0.173077 0.500000
vt 0.173077 0.750000
vt 0.182692 0.500000
vt 0.182692 0.750000
vt 0.192308 0.500000
vt 0.192308 0.750000
vt 0.201923 0.500000
vt 0.201923 0.750000
vt 0.211538 0.500000
vt 0.211538 0.750000
vt 0.221154 0.500000
vt 0.221154 0.750000
vt 0.230769 0.500000
vt 0.230769 0.750000
vt 0.240385 0.500000
vt 0.240385 0.750000
vt 0.250000 0.500000
vt 0.250000 0.750000
vt 0.259615 0.500000
vt 0.259615 0.750000
vt 0.269231 0.500000
vt 0.269231 0.750000
vt 0.278846 0.500000
vt 0.278846 0.750000
vt 0.288462 0.500000
vt 0.288462 0.750000
vt 0.298077 0.500000
vt 0.298077 0.750000
vt 0.307692 0.500000
vt 0.307692 0.750000
vt 0.317308 0.500000
vt 0.317308 0.750000
vt 0.326923 0.500000
vt 0.326923 0.750000
vt 0.336538 0.500000
vt 0.336538 0.750000
vt 0.346154 0.500000
vt 0.346154 0.750000
vt 0.355769 0.500000
vt 0.355769 0.750000
vt 0.625000 0.759615
vt 0.375000 0.759615
vt 0.625000 0.769231
vt 0.375000 0.769231
vt 0.625000 0.778846
vt 0.375000 0.778846
vt 0.625000 0.788462
vt 0.375000 0.788462
vt 0.625000 0.798077
vt 0.375000 0.798077
vt 0.625000 0.807692
vt 0.375000 0.807692
vt 0.625000 0.817308
vt 0.375000 0.817308
vt 0.625000 0.826923
vt 0.375000 0.826923
vt 0.625000 0.836538
vt 0.375000 0.836538
vt 0.625000 0.846154
vt 0.375000 0.846154
vt 0.625000 0.855769
vt 0.375000 0.855769
vt 0.625000 0.865385
vt 0.375000 0.865385
vt 0.625000 0.875000
vt 0.375000 0.875000
vt 0.625000 0.884615
vt 0.375000 0.884615
vt 0.625000 0.894231
vt 0.375000 0.894231
vt 0.625000 0.903846
vt 0.375000 0.903846
vt 0.625000 0.913461
vt 0.375000 0.913461
vt 0.625000 0.923077
vt 0.375000 0.923077
vt 0.625000 0.932692
vt 0.375000 0.932692
vt 0.625000 0.942308
vt 0.375000 0.942308
vt 0.625000 0.951923
vt 0.375000 0.951923
vt 0.625000 0.961538
vt 0.375000 0.961538
vt 0.625000 0.971154
vt 0.375000 0.971154
vt 0.625000 0.980769
vt 0.375000 0.980769
vt 0.625000 0.259615
vt 0.375000 0.259615
vt 0.625000 0.269231
vt 0.375000 0.269231
vt 0.625000 0.278846
vt 0.375000 0.278846
vt 0.625000 0.288462
vt 0.375000 0.288462
vt 0.625000 0.298077
vt 0.375000 0.298077
vt 0.625000 0.307692
vt 0.375000 0.307692
vt 0.625000 0.317308
vt 0.375000 0.317308
vt 0.625000 0.326923
vt 0.375000 0.326923
vt 0.625000 0.336538
vt 0.375000 0.336538
vt 0.625000 0.346154
vt 0.375000 0.346154
vt 0.625000 0.355769
vt 0.375000 0.355769
vt 0.625000 0.365385
vt 0.375000 0.365385
vt 0.625000 0.375000
vt 0.375000 0.375000
vt 0.625000 0.384615
vt 0.375000 0.384615
vt 0.625000 0.394231
vt 0.375000 0.394231
vt 0.625000 0.403846
vt 0.375000 0.403846
vt 0.625000 0.413462
vt 0.375000 0.413462
vt 0.625000 0.423077
vt 0.375000 0.423077
vt 0.625000 0.432692
vt 0.375000 0.432692
vt 0.625000 0.442308
vt 0.375000 0.442308
vt 0.625000 0.451923
vt 0.375000 0.451923
vt 0.625000 0.461538
vt 0.375000 0.461538
vt 0.625000 0.471154
vt 0.375000 0.471154
vt 0.625000 0.480769
vt 0.375000 0.480769
vn -0.9570 0.0000 -0.2899
vn 0.0000 -1.0000 0.0000
vn 1.0000 0.0000 0.0000
vn 0.0000 1.0000 0.0000
vn -0.0134 0.0000 0.9999
vn 0.4972 -0.0000 -0.8676
vn 0.0134 0.0000 -0.9999
vn 0.0267 0.0000 -0.9996
vn 0.0162 0.0000 -0.9999
vn -0.0298 -0.0000 -0.9996
vn -0.1502 -0.0000 -0.9887
vn -0.4424 0.0000 -0.8968
vn -0.9159 0.0000 -0.4014
vn -0.7761 -0.0000 0.6306
vn -0.3237 0.0000 0.9462
vn -0.1652 0.0000 0.9863
vn -0.0970 0.0000 0.9953
vn -0.0551 0.0000 0.9985
vn -0.0279 0.0000 0.9996
vn -0.0137 0.0000 0.9999
vn -0.0174 -0.0000 0.9998
vn -0.0242 0.0000 0.9997
vn -0.0091 0.0000 1.0000
vn 0.0215 0.0000 0.9998
vn 0.0766 0.0000 0.9971
vn 0.1526 0.0000 0.9883
vn 0.2868 0.0000 0.9580
vn 0.5392 -0.0000 0.8422
vn 0.9260 -0.0000 0.3776
vn 0.9408 -0.0000 -0.3389
vn 0.7165 -0.0000 -0.6976
vn -0.5045 -0.0000 0.8634
vn -0.7149 0.0000 0.6992
vn -0.9360 -0.0000 0.3520
vn -0.9233 -0.0000 -0.3841
vn -0.5303 0.0000 -0.8478
vn -0.2847 0.0000 -0.9586
vn -0.1521 0.0000 -0.9884
vn -0.0765 0.0000 -0.9971
vn -0.0214 0.0000 -0.9998
vn 0.0091 -0.0000 -1.0000
vn 0.0242 -0.0000 -0.9997
vn 0.0174 -0.0000 -0.9998
vn 0.0137 0.0000 -0.9999
vn 0.0278 0.0000 -0.9996
vn 0.0551 0.0000 -0.9985
vn 0.0969 0.0000 -0.9953
vn 0.1644 0.0000 -0.9864
vn 0.3186 0.0000 -0.9479
vn 0.7331 -0.0000 -0.6802
vn 0.9044 -0.0000 0.4266
vn 0.4315 0.0000 0.9021
vn 0.1483 0.0000 0.9889
vn 0.0295 -0.0000 0.9996
vn -0.0163 0.0000 0.9999
vn -0.0267 0.0000 0.9996
usemtl None
s off
f 50/1/1 51/2/1 53/3/1 52/4/1
f 58/5/2 107/6/2 57/7/2 56/8/2
f 56/8/3 57/7/3 55/9/3 54/10/3
f 108/11/4 157/12/4 51/13/4 50/14/4
f 58/15/5 56/8/5 54/10/5 132/16/5
f 83/17/6 53/18/6 51/19/6 157/20/6
f 57/7/7 107/21/7 133/22/7 55/9/7
f 107/21/8 106/23/8 134/24/8 133/22/8
f 106/23/9 105/25/9 135/26/9 134/24/9
f 105/25/10 104/27/10 136/28/10 135/26/10
f 104/27/11 103/29/11 137/30/11 136/28/11
f 103/29/12 102/31/12 138/32/12 137/30/12
f 102/31/13 101/33/13 139/34/13 138/32/13
f 101/33/14 100/35/14 140/36/14 139/34/14
f 100/35/15 99/37/15 141/38/15 140/36/15
f 99/37/16 98/39/16 142/40/16 141/38/16
f 98/39/17 97/41/17 143/42/17 142/40/17
f 97/41/18 96/43/18 144/44/18 143/42/18
f 96/43/19 95/45/19 145/46/19 144/44/19
f 95/45/20 94/47/20 146/48/20 145/46/20
f 94/47/21 93/49/21 147/50/21 146/48/21
f 93/49/22 92/51/22 148/52/22 147/50/22
f 92/51/23 91/53/23 149/54/23 148/52/23
f 91/53/24 90/55/24 150/56/24 149/54/24
f 90/55/25 89/57/25 151/58/25 150/56/25
f 89/57/26 88/59/26 152/60/26 151/58/26
f 88/59/27 87/61/27 153/62/27 152/60/27
f 87/61/28 86/63/28 154/64/28 153/62/28
f 86/63/29 85/65/29 155/66/29 154/64/29
f 85/65/30 84/67/30 156/68/30 155/66/30
f 84/67/31 83/17/31 157/20/31 156/68/31
f 52/69/32 82/70/32 108/71/32 50/72/32
f 82/70/33 81/73/33 109/74/33 108/71/33
f 81/73/34 80/75/34 110/76/34 109/74/34
f 80/75/35 79/77/35 111/78/35 110/76/35
f 79/77/36 78/79/36 112/80/36 111/78/36
f 78/79/37 77/81/37 113/82/37 112/80/37
f 77/81/38 76/83/38 114/84/38 113/82/38
f 76/83/39 75/85/39 115/86/39 114/84/39
f 75/85/40 74/87/40 116/88/40 115/86/40
f 74/87/41 73/89/41 117/90/41 116/88/41
f 73/89/42 72/91/42 118/92/42 117/90/42
f 72/91/43 71/93/43 119/94/43 118/92/43
f 71/93/44 70/95/44 120/96/44 119/94/44
f 70/95/45 69/97/45 121/98/45 120/96/45
f 69/97/46 68/99/46 122/100/46 121/98/46
f 68/99/47 67/101/47 123/102/47 122/100/47
f 67/101/48 66/103/48 124/104/48 123/102/48
f 66/103/49 65/105/49 125/106/49 124/104/49
f 65/105/50 64/107/50 126/108/50 125/106/50
f 64/107/51 63/109/51 127/110/51 126/108/51
f 63/109/52 62/111/52 128/112/52 127/110/52
f 62/111/53 61/113/53 129/114/53 128/112/53
f 61/113/54 60/115/54 130/116/54 129/114/54
f 60/115/55 59/117/55 131/118/55 130/116/55
f 59/117/56 58/15/56 132/16/56 131/118/56
f 54/10/4 55/9/4 133/119/4 132/120/4
f 132/120/4 133/119/4 134/121/4 131/122/4
f 131/122/4 134/121/4 135/123/4 130/124/4
f 130/124/4 135/123/4 136/125/4 129/126/4
f 129/126/4 136/125/4 137/127/4 128/128/4
f 128/128/4 137/127/4 138/129/4 127/130/4
f 127/130/4 138/129/4 139/131/4 126/132/4
f 126/132/4 139/131/4 140/133/4 125/134/4
f 125/134/4 140/133/4 141/135/4 124/136/4
f 124/136/4 141/135/4 142/137/4 123/138/4
f 123/138/4 142/137/4 143/139/4 122/140/4
f 122/140/4 143/139/4 144/141/4 121/142/4
f 121/142/4 144/141/4 145/143/4 120/144/4
f 120/144/4 145/143/4 146/145/4 119/146/4
f 119/146/4 146/145/4 147/147/4 118/148/4
f 118/148/4 147/147/4 148/149/4 117/150/4
f 117/150/4 148/149/4 149/151/4 116/152/4
f 116/152/4 149/151/4 150/153/4 115/154/4
f 115/154/4 150/153/4 151/155/4 114/156/4
f 114/156/4 151/155/4 152/157/4 113/158/4
f 113/158/4 152/157/4 153/159/4 112/160/4
f 112/160/4 153/159/4 154/161/4 111/162/4
f 111/162/4 154/161/4 155/163/4 110/164/4
f 110/164/4 155/163/4 156/165/4 109/166/4
f 109/166/4 156/165/4 157/12/4 108/11/4
f 52/4/2 53/3/2 83/167/2 82/168/2
f 82/168/2 83/167/2 84/169/2 81/170/2
f 81/170/2 84/169/2 85/171/2 80/172/2
f 80/172/2 85/171/2 86/173/2 79/174/2
f 79/174/2 86/173/2 87/175/2 78/176/2
f 78/176/2 87/175/2 88/177/2 77/178/2
f 77/178/2 88/177/2 89/179/2 76/180/2
f 76/180/2 89/179/2 90/181/2 75/182/2
f 75/182/2 90/181/2 91/183/2 74/184/2
f 74/184/2 91/183/2 92/185/2 73/186/2
f 73/186/2 92/185/2 93/187/2 72/188/2
f 72/188/2 93/187/2 94/189/2 71/190/2
f 71/190/2 94/189/2 95/191/2 70/192/2
f 70/192/2 95/191/2 96/193/2 69/194/2
f 69/194/2 96/193/2 97/195/2 68/196/2
f 68/196/2 97/195/2 98/197/2 67/198/2
f 67/198/2 98/197/2 99/199/2 66/200/2
f 66/200/2 99/199/2 100/201/2 65/202/2
f 65/202/2 100/201/2 101/203/2 64/204/2
f 64/204/2 101/203/2 102/205/2 63/206/2
f 63/206/2 102/205/2 103/207/2 62/208/2
f 62/208/2 103/207/2 104/209/2 61/210/2
f 61/210/2 104/209/2 105/211/2 60/212/2
f 60/212/2 105/211/2 106/213/2 59/214/2
f 59/214/2 106/213/2 107/6/2 58/5/2
