# Blender v2.93.0 OBJ File: 'Done.blend'
# www.blender.org
mtllib Done.mtl
o BezierCurve_BezierCurve.001
v -5.989243 0.000000 -0.163839
v -5.911526 0.000000 -0.134900
v -5.841230 0.000000 -0.109656
v -5.775971 0.000000 -0.087535
v -5.713361 0.000000 -0.067966
v -5.651013 0.000000 -0.050378
v -5.586543 0.000000 -0.034199
v -5.517562 0.000000 -0.018860
v -5.441685 0.000000 -0.003788
v -5.356525 0.000000 0.011586
v -5.259696 0.000000 0.027835
v -5.148811 0.000000 0.045530
v -5.021486 0.000000 0.065240
v -4.857445 0.000000 0.090143
v -4.716206 0.000000 0.110974
v -4.593225 0.000000 0.128330
v -4.483956 0.000000 0.142808
v -4.383855 0.000000 0.155005
v -4.288375 0.000000 0.165518
v -4.192973 0.000000 0.174943
v -4.093102 0.000000 0.183877
v -3.984217 0.000000 0.192917
v -3.861774 0.000000 0.202660
v -3.721228 0.000000 0.213702
v -3.558033 0.000000 0.226641
v -3.387381 0.000000 0.235824
v -3.169647 0.000000 0.240746
v -2.914862 0.000000 0.241971
v -2.633060 0.000000 0.240067
v -2.334272 0.000000 0.235601
v -2.028529 0.000000 0.229138
v -1.725864 0.000000 0.221246
v -1.436308 0.000000 0.212492
v -1.169894 0.000000 0.203441
v -0.936652 0.000000 0.194660
v -0.746616 0.000000 0.186717
v -0.609817 0.000000 0.180177
v -0.580160 0.000000 0.177850
v -0.541860 0.000000 0.173651
v -0.496662 0.000000 0.167831
v -0.446312 0.000000 0.160639
v -0.392555 0.000000 0.152325
v -0.337136 0.000000 0.143137
v -0.281800 0.000000 0.133327
v -0.228292 0.000000 0.123142
v -0.178358 0.000000 0.112833
v -0.133742 0.000000 0.102650
v -0.096191 0.000000 0.092840
v -0.067449 0.000000 0.083656
l 1 2
l 2 3
l 3 4
l 4 5
l 5 6
l 6 7
l 7 8
l 8 9
l 9 10
l 10 11
l 11 12
l 12 13
l 13 14
l 14 15
l 15 16
l 16 17
l 17 18
l 18 19
l 19 20
l 20 21
l 21 22
l 22 23
l 23 24
l 24 25
l 25 26
l 26 27
l 27 28
l 28 29
l 29 30
l 30 31
l 31 32
l 32 33
l 33 34
l 34 35
l 35 36
l 36 37
l 37 38
l 38 39
l 39 40
l 40 41
l 41 42
l 42 43
l 43 44
l 44 45
l 45 46
l 46 47
l 47 48
l 48 49
o Cube_Cube.001
v -0.057947 2.376640 0.010040
v -0.011241 2.376640 0.136273
v -0.057947 -2.376640 0.010040
v -0.011241 -2.376640 0.136273
v -5.847076 2.376640 -0.183261
v -5.892188 2.376640 -0.056450
v -5.847076 -2.376640 -0.183261
v -5.892188 -2.376640 -0.056450
v -5.636831 -2.376640 -0.116296
v -5.421145 -2.376640 -0.068464
v -5.200028 -2.376640 -0.030793
v -4.977164 -2.376640 0.003900
v -4.753992 -2.376640 0.037375
v -4.531015 -2.376640 0.068687
v -4.308171 -2.376640 0.095634
v -4.084547 -2.376641 0.117058
v -3.859662 -2.376641 0.135317
v -3.634696 -2.376641 0.153055
v -3.411085 -2.376641 0.167158
v -3.186886 -2.376640 0.173042
v -2.961744 -2.376640 0.174447
v -2.736261 -2.376640 0.173465
v -2.510626 -2.376640 0.170931
v -2.284910 -2.376641 0.167244
v -2.059145 -2.376640 0.162472
v -1.833360 -2.376641 0.156728
v -1.607576 -2.376641 0.150341
v -1.381802 -2.376641 0.143303
v -1.156056 -2.376640 0.135574
v -0.930385 -2.376641 0.127042
v -0.705229 -2.376641 0.117364
v -0.486114 -2.376641 0.098343
v -0.266356 -2.376641 0.061881
v -0.241048 -2.376641 0.194076
v -0.467332 -2.376641 0.231622
v -0.698400 -2.376641 0.251786
v -0.925011 -2.376641 0.261530
v -1.151203 -2.376640 0.270083
v -1.377377 -2.376641 0.277826
v -1.603568 -2.376641 0.284877
v -1.829786 -2.376641 0.291277
v -2.056040 -2.376641 0.297033
v -2.282359 -2.376641 0.301816
v -2.508767 -2.376640 0.305515
v -2.735286 -2.376640 0.308057
v -2.961978 -2.376640 0.309043
v -3.189007 -2.376640 0.307622
v -3.416814 -2.376641 0.301631
v -3.644459 -2.376641 0.287296
v -3.870279 -2.376641 0.269494
v -4.096096 -2.376640 0.251158
v -4.322585 -2.376640 0.229456
v -4.548642 -2.376640 0.202124
v -4.773450 -2.376640 0.170557
v -4.997461 -2.376640 0.136956
v -5.221399 -2.376640 0.102096
v -5.446028 -2.376640 0.063812
v -5.671680 -2.376640 0.013711
v -0.266357 2.376641 0.061881
v -0.486114 2.376641 0.098343
v -0.705229 2.376641 0.117364
v -0.930386 2.376641 0.127042
v -1.156056 2.376640 0.135574
v -1.381802 2.376641 0.143303
v -1.607576 2.376641 0.150341
v -1.833360 2.376641 0.156728
v -2.059145 2.376641 0.162472
v -2.284911 2.376641 0.167244
v -2.510627 2.376640 0.170931
v -2.736262 2.376640 0.173465
v -2.961745 2.376640 0.174447
v -3.186886 2.376640 0.173042
v -3.411085 2.376641 0.167158
v -3.634696 2.376641 0.153055
v -3.859662 2.376641 0.135317
v -4.084548 2.376640 0.117058
v -4.308172 2.376640 0.095634
v -4.531015 2.376640 0.068687
v -4.753993 2.376640 0.037375
v -4.977164 2.376640 0.003899
v -5.200028 2.376640 -0.030793
v -5.421146 2.376640 -0.068464
v -5.636831 2.376640 -0.116296
v -5.671680 2.376640 0.013711
v -5.446027 2.376640 0.063812
v -5.221399 2.376640 0.102096
v -4.997461 2.376640 0.136956
v -4.773450 2.376640 0.170557
v -4.548642 2.376640 0.202124
v -4.322585 2.376640 0.229456
v -4.096095 2.376641 0.251158
v -3.870279 2.376641 0.269494
v -3.644459 2.376641 0.287296
v -3.416814 2.376641 0.301632
v -3.189007 2.376640 0.307622
v -2.961977 2.376640 0.309043
v -2.735285 2.376640 0.308057
v -2.508766 2.376640 0.305515
v -2.282358 2.376641 0.301816
v -2.056040 2.376640 0.297033
v -1.829786 2.376641 0.291277
v -1.603567 2.376641 0.284877
v -1.377377 2.376641 0.277826
v -1.151203 2.376640 0.270083
v -0.925011 2.376641 0.261530
v -0.698400 2.376641 0.251786
v -0.467332 2.376641 0.231622
v -0.241047 2.376641 0.194076
vt 0.375000 0.000000
vt 0.625000 0.000000
vt 0.625000 0.250000
vt 0.375000 0.250000
vt 0.375000 0.490385
vt 0.625000 0.490385
vt 0.625000 0.500000
vt 0.375000 0.500000
vt 0.625000 0.750000
vt 0.375000 0.750000
vt 0.375000 0.990385
vt 0.625000 0.990385
vt 0.625000 1.000000
vt 0.375000 1.000000
vt 0.365385 0.500000
vt 0.365385 0.750000
vt 0.865385 0.500000
vt 0.875000 0.500000
vt 0.875000 0.750000
vt 0.865385 0.750000
vt 0.634615 0.500000
vt 0.634615 0.750000
vt 0.644231 0.500000
vt 0.644231 0.750000
vt 0.653846 0.500000
vt 0.653846 0.750000
vt 0.663462 0.500000
vt 0.663462 0.750000
vt 0.673077 0.500000
vt 0.673077 0.750000
vt 0.682692 0.500000
vt 0.682692 0.750000
vt 0.692308 0.500000
vt 0.692308 0.750000
vt 0.701923 0.500000
vt 0.701923 0.750000
vt 0.711538 0.500000
vt 0.711539 0.750000
vt 0.721154 0.500000
vt 0.721154 0.750000
vt 0.730769 0.500000
vt 0.730769 0.750000
vt 0.740385 0.500000
vt 0.740385 0.750000
vt 0.750000 0.500000
vt 0.750000 0.750000
vt 0.759615 0.500000
vt 0.759615 0.750000
vt 0.769231 0.500000
vt 0.769231 0.750000
vt 0.778846 0.500000
vt 0.778846 0.750000
vt 0.788461 0.500000
vt 0.788462 0.750000
vt 0.798077 0.500000
vt 0.798077 0.750000
vt 0.807692 0.500000
vt 0.807692 0.750000
vt 0.817308 0.500000
vt 0.817308 0.750000
vt 0.826923 0.500000
vt 0.826923 0.750000
vt 0.836538 0.500000
vt 0.836539 0.750000
vt 0.846154 0.500000
vt 0.846154 0.750000
vt 0.855769 0.500000
vt 0.855769 0.750000
vt 0.125000 0.500000
vt 0.134615 0.500000
vt 0.134615 0.750000
vt 0.125000 0.750000
vt 0.144231 0.500000
vt 0.144231 0.750000
vt 0.153846 0.500000
vt 0.153846 0.750000
vt 0.163462 0.500000
vt 0.163462 0.750000
vt 0.173077 0.500000
vt 0.173077 0.750000
vt 0.182692 0.500000
vt 0.182692 0.750000
vt 0.192308 0.500000
vt 0.192308 0.750000
vt 0.201923 0.500000
vt 0.201923 0.750000
vt 0.211538 0.500000
vt 0.211538 0.750000
vt 0.221154 0.500000
vt 0.221154 0.750000
vt 0.230769 0.500000
vt 0.230769 0.750000
vt 0.240385 0.500000
vt 0.240385 0.750000
vt 0.250000 0.500000
vt 0.250000 0.750000
vt 0.259615 0.500000
vt 0.259615 0.750000
vt 0.269231 0.500000
vt 0.269231 0.750000
vt 0.278846 0.500000
vt 0.278846 0.750000
vt 0.288462 0.500000
vt 0.288462 0.750000
vt 0.298077 0.500000
vt 0.298077 0.750000
vt 0.307692 0.500000
vt 0.307692 0.750000
vt 0.317308 0.500000
vt 0.317308 0.750000
vt 0.326923 0.500000
vt 0.326923 0.750000
vt 0.336538 0.500000
vt 0.336538 0.750000
vt 0.346154 0.500000
vt 0.346154 0.750000
vt 0.355769 0.500000
vt 0.355769 0.750000
vt 0.625000 0.759615
vt 0.375000 0.759615
vt 0.625000 0.769231
vt 0.375000 0.769231
vt 0.625000 0.778846
vt 0.375000 0.778846
vt 0.625000 0.788462
vt 0.375000 0.788462
vt 0.625000 0.798077
vt 0.375000 0.798077
vt 0.625000 0.807692
vt 0.375000 0.807692
vt 0.625000 0.817308
vt 0.375000 0.817308
vt 0.625000 0.826923
vt 0.375000 0.826923
vt 0.625000 0.836538
vt 0.375000 0.836538
vt 0.625000 0.846154
vt 0.375000 0.846154
vt 0.625000 0.855769
vt 0.375000 0.855769
vt 0.625000 0.865385
vt 0.375000 0.865385
vt 0.625000 0.875000
vt 0.375000 0.875000
vt 0.625000 0.884615
vt 0.375000 0.884615
vt 0.625000 0.894231
vt 0.375000 0.894231
vt 0.625000 0.903846
vt 0.375000 0.903846
vt 0.625000 0.913461
vt 0.375000 0.913461
vt 0.625000 0.923077
vt 0.375000 0.923077
vt 0.625000 0.932692
vt 0.375000 0.932692
vt 0.625000 0.942308
vt 0.375000 0.942308
vt 0.625000 0.951923
vt 0.375000 0.951923
vt 0.625000 0.961538
vt 0.375000 0.961538
vt 0.625000 0.971154
vt 0.375000 0.971154
vt 0.625000 0.980769
vt 0.375000 0.980769
vt 0.625000 0.259615
vt 0.375000 0.259615
vt 0.625000 0.269231
vt 0.375000 0.269231
vt 0.625000 0.278846
vt 0.375000 0.278846
vt 0.625000 0.288462
vt 0.375000 0.288462
vt 0.625000 0.298077
vt 0.375000 0.298077
vt 0.625000 0.307692
vt 0.375000 0.307692
vt 0.625000 0.317308
vt 0.375000 0.317308
vt 0.625000 0.326923
vt 0.375000 0.326923
vt 0.625000 0.336538
vt 0.375000 0.336538
vt 0.625000 0.346154
vt 0.375000 0.346154
vt 0.625000 0.355769
vt 0.375000 0.355769
vt 0.625000 0.365385
vt 0.375000 0.365385
vt 0.625000 0.375000
vt 0.375000 0.375000
vt 0.625000 0.384615
vt 0.375000 0.384615
vt 0.625000 0.394231
vt 0.375000 0.394231
vt 0.625000 0.403846
vt 0.375000 0.403846
vt 0.625000 0.413462
vt 0.375000 0.413462
vt 0.625000 0.423077
vt 0.375000 0.423077
vt 0.625000 0.432692
vt 0.375000 0.432692
vt 0.625000 0.442308
vt 0.375000 0.442308
vt 0.625000 0.451923
vt 0.375000 0.451923
vt 0.625000 0.461538
vt 0.375000 0.461538
vt 0.625000 0.471154
vt 0.375000 0.471154
vt 0.625000 0.480769
vt 0.375000 0.480769
vn 0.9379 0.0000 -0.3470
vn 0.0000 -1.0000 0.0000
vn -0.9422 0.0000 -0.3352
vn 0.0000 1.0000 -0.0000
vn 0.3035 0.0000 -0.9528
vn 0.2439 -0.0000 0.9698
vn -0.3032 -0.0000 0.9529
vn -0.2167 0.0000 0.9762
vn -0.1680 0.0000 0.9858
vn -0.1538 0.0000 0.9881
vn -0.1483 -0.0000 0.9889
vn -0.1391 -0.0000 0.9903
vn -0.1200 -0.0000 0.9928
vn -0.0954 -0.0000 0.9954
vn -0.0809 0.0000 0.9967
vn -0.0786 -0.0000 0.9969
vn -0.0628 -0.0000 0.9980
vn -0.0263 -0.0000 0.9997
vn -0.0063 0.0000 1.0000
vn 0.0043 -0.0000 1.0000
vn 0.0112 -0.0000 0.9999
vn 0.0163 -0.0000 0.9999
vn 0.0211 0.0000 0.9998
vn 0.0254 0.0000 0.9997
vn 0.0283 -0.0000 0.9996
vn 0.0312 -0.0000 0.9995
vn 0.0342 -0.0000 0.9994
vn 0.0378 -0.0000 0.9993
vn 0.0430 -0.0000 0.9991
vn 0.0869 -0.0000 0.9962
vn 0.1637 0.0000 0.9865
vn -0.2414 -0.0000 -0.9704
vn -0.1637 0.0000 -0.9865
vn -0.0865 0.0000 -0.9963
vn -0.0429 0.0000 -0.9991
vn -0.0378 0.0000 -0.9993
vn -0.0342 0.0000 -0.9994
vn -0.0312 0.0000 -0.9995
vn -0.0283 -0.0000 -0.9996
vn -0.0254 -0.0000 -0.9997
vn -0.0211 -0.0000 -0.9998
vn -0.0163 -0.0000 -0.9999
vn -0.0112 -0.0000 -0.9999
vn -0.0044 -0.0000 -1.0000
vn 0.0062 0.0000 -1.0000
vn 0.0262 0.0000 -0.9997
vn 0.0629 0.0000 -0.9980
vn 0.0786 0.0000 -0.9969
vn 0.0809 0.0000 -0.9967
vn 0.0954 0.0000 -0.9954
vn 0.1200 -0.0000 -0.9928
vn 0.1391 -0.0000 -0.9903
vn 0.1483 0.0000 -0.9889
vn 0.1538 0.0000 -0.9881
vn 0.1679 0.0000 -0.9858
vn 0.2165 0.0000 -0.9763
usemtl None
s off
f 50/1/1 51/2/1 53/3/1 52/4/1
f 58/5/2 107/6/2 57/7/2 56/8/2
f 56/8/3 57/7/3 55/9/3 54/10/3
f 108/11/4 157/12/4 51/13/4 50/14/4
f 58/15/5 56/8/5 54/10/5 132/16/5
f 83/17/6 53/18/6 51/19/6 157/20/6
f 57/7/7 107/21/7 133/22/7 55/9/7
f 107/21/8 106/23/8 134/24/8 133/22/8
f 106/23/9 105/25/9 135/26/9 134/24/9
f 105/25/10 104/27/10 136/28/10 135/26/10
f 104/27/11 103/29/11 137/30/11 136/28/11
f 103/29/12 102/31/12 138/32/12 137/30/12
f 102/31/13 101/33/13 139/34/13 138/32/13
f 101/33/14 100/35/14 140/36/14 139/34/14
f 100/35/15 99/37/15 141/38/15 140/36/15
f 99/37/16 98/39/16 142/40/16 141/38/16
f 98/39/17 97/41/17 143/42/17 142/40/17
f 97/41/18 96/43/18 144/44/18 143/42/18
f 96/43/19 95/45/19 145/46/19 144/44/19
f 95/45/20 94/47/20 146/48/20 145/46/20
f 94/47/21 93/49/21 147/50/21 146/48/21
f 93/49/22 92/51/22 148/52/22 147/50/22
f 92/51/23 91/53/23 149/54/23 148/52/23
f 91/53/24 90/55/24 150/56/24 149/54/24
f 90/55/25 89/57/25 151/58/25 150/56/25
f 89/57/26 88/59/26 152/60/26 151/58/26
f 88/59/27 87/61/27 153/62/27 152/60/27
f 87/61/28 86/63/28 154/64/28 153/62/28
f 86/63/29 85/65/29 155/66/29 154/64/29
f 85/65/30 84/67/30 156/68/30 155/66/30
f 84/67/31 83/17/31 157/20/31 156/68/31
f 52/69/32 82/70/32 108/71/32 50/72/32
f 82/70/33 81/73/33 109/74/33 108/71/33
f 81/73/34 80/75/34 110/76/34 109/74/34
f 80/75/35 79/77/35 111/78/35 110/76/35
f 79/77/36 78/79/36 112/80/36 111/78/36
f 78/79/37 77/81/37 113/82/37 112/80/37
f 77/81/38 76/83/38 114/84/38 113/82/38
f 76/83/39 75/85/39 115/86/39 114/84/39
f 75/85/40 74/87/40 116/88/40 115/86/40
f 74/87/41 73/89/41 117/90/41 116/88/41
f 73/89/42 72/91/42 118/92/42 117/90/42
f 72/91/43 71/93/43 119/94/43 118/92/43
f 71/93/44 70/95/44 120/96/44 119/94/44
f 70/95/45 69/97/45 121/98/45 120/96/45
f 69/97/46 68/99/46 122/100/46 121/98/46
f 68/99/47 67/101/47 123/102/47 122/100/47
f 67/101/48 66/103/48 124/104/48 123/102/48
f 66/103/49 65/105/49 125/106/49 124/104/49
f 65/105/50 64/107/50 126/108/50 125/106/50
f 64/107/51 63/109/51 127/110/51 126/108/51
f 63/109/52 62/111/52 128/112/52 127/110/52
f 62/111/53 61/113/53 129/114/53 128/112/53
f 61/113/54 60/115/54 130/116/54 129/114/54
f 60/115/55 59/117/55 131/118/55 130/116/55
f 59/117/56 58/15/56 132/16/56 131/118/56
f 54/10/4 55/9/4 133/119/4 132/120/4
f 132/120/4 133/119/4 134/121/4 131/122/4
f 131/122/4 134/121/4 135/123/4 130/124/4
f 130/124/4 135/123/4 136/125/4 129/126/4
f 129/126/4 136/125/4 137/127/4 128/128/4
f 128/128/4 137/127/4 138/129/4 127/130/4
f 127/130/4 138/129/4 139/131/4 126/132/4
f 126/132/4 139/131/4 140/133/4 125/134/4
f 125/134/4 140/133/4 141/135/4 124/136/4
f 124/136/4 141/135/4 142/137/4 123/138/4
f 123/138/4 142/137/4 143/139/4 122/140/4
f 122/140/4 143/139/4 144/141/4 121/142/4
f 121/142/4 144/141/4 145/143/4 120/144/4
f 120/144/4 145/143/4 146/145/4 119/146/4
f 119/146/4 146/145/4 147/147/4 118/148/4
f 118/148/4 147/147/4 148/149/4 117/150/4
f 117/150/4 148/149/4 149/151/4 116/152/4
f 116/152/4 149/151/4 150/153/4 115/154/4
f 115/154/4 150/153/4 151/155/4 114/156/4
f 114/156/4 151/155/4 152/157/4 113/158/4
f 113/158/4 152/157/4 153/159/4 112/160/4
f 112/160/4 153/159/4 154/161/4 111/162/4
f 111/162/4 154/161/4 155/163/4 110/164/4
f 110/164/4 155/163/4 156/165/4 109/166/4
f 109/166/4 156/165/4 157/12/4 108/11/4
f 52/4/2 53/3/2 83/167/2 82/168/2
f 82/168/2 83/167/2 84/169/2 81/170/2
f 81/170/2 84/169/2 85/171/2 80/172/2
f 80/172/2 85/171/2 86/173/2 79/174/2
f 79/174/2 86/173/2 87/175/2 78/176/2
f 78/176/2 87/175/2 88/177/2 77/178/2
f 77/178/2 88/177/2 89/179/2 76/180/2
f 76/180/2 89/179/2 90/181/2 75/182/2
f 75/182/2 90/181/2 91/183/2 74/184/2
f 74/184/2 91/183/2 92/185/2 73/186/2
f 73/186/2 92/185/2 93/187/2 72/188/2
f 72/188/2 93/187/2 94/189/2 71/190/2
f 71/190/2 94/189/2 95/191/2 70/192/2
f 70/192/2 95/191/2 96/193/2 69/194/2
f 69/194/2 96/193/2 97/195/2 68/196/2
f 68/196/2 97/195/2 98/197/2 67/198/2
f 67/198/2 98/197/2 99/199/2 66/200/2
f 66/200/2 99/199/2 100/201/2 65/202/2
f 65/202/2 100/201/2 101/203/2 64/204/2
f 64/204/2 101/203/2 102/205/2 63/206/2
f 63/206/2 102/205/2 103/207/2 62/208/2
f 62/208/2 103/207/2 104/209/2 61/210/2
f 61/210/2 104/209/2 105/211/2 60/212/2
f 60/212/2 105/211/2 106/213/2 59/214/2
f 59/214/2 106/213/2 107/6/2 58/5/2
