# Blender v2.93.0 OBJ File: ''
# www.blender.org
mtllib Scroll.mtl
o BezierCurve
v 0.799063 2.051536 0.082662
v 0.608828 2.052829 0.082609
v 0.415201 2.055215 0.082510
v 0.219450 2.056457 0.082459
v 0.022847 2.054316 0.082547
v -0.173338 2.046553 0.082867
v -0.367835 2.030930 0.083509
v -0.559373 2.005209 0.084567
v -0.746681 1.967151 0.086132
v -0.928489 1.914519 0.088296
v -1.103527 1.845073 0.091152
v -1.270524 1.756576 0.094791
v -1.428209 1.646788 0.099305
v -1.658163 1.416212 0.108787
v -1.764822 1.197008 0.117800
v -1.761985 0.992363 0.126216
v -1.663453 0.805463 0.133901
v -1.483026 0.639494 0.140726
v -1.234502 0.497640 0.146559
v -0.931682 0.383088 0.151269
v -0.588365 0.299024 0.154726
v -0.218352 0.248633 0.156798
v 0.164558 0.235100 0.157355
v 0.546566 0.261612 0.156265
v 0.913870 0.331355 0.153397
v 0.990656 0.352172 0.152541
v 1.070367 0.376074 0.151558
v 1.151171 0.403530 0.150429
v 1.231239 0.435007 0.149134
v 1.308740 0.470976 0.147655
v 1.381846 0.511904 0.145972
v 1.448725 0.558261 0.144066
v 1.507549 0.610515 0.141917
v 1.556486 0.669136 0.139507
v 1.593706 0.734592 0.136815
v 1.617381 0.807351 0.133823
v 1.625679 0.887884 0.130512
v 1.603608 0.962939 0.127426
v 1.542058 1.036740 0.124391
v 1.448023 1.107293 0.121490
v 1.328497 1.172606 0.118804
v 1.190474 1.230687 0.116416
v 1.040948 1.279542 0.114407
v 0.886914 1.317178 0.112859
v 0.735365 1.341604 0.111855
v 0.593296 1.350825 0.111475
v 0.467701 1.342849 0.111803
v 0.365574 1.315684 0.112920
v 0.293908 1.267337 0.114908
l 1 2
l 2 3
l 3 4
l 4 5
l 5 6
l 6 7
l 7 8
l 8 9
l 9 10
l 10 11
l 11 12
l 12 13
l 13 14
l 14 15
l 15 16
l 16 17
l 17 18
l 18 19
l 19 20
l 20 21
l 21 22
l 22 23
l 23 24
l 24 25
l 25 26
l 26 27
l 27 28
l 28 29
l 29 30
l 30 31
l 31 32
l 32 33
l 33 34
l 34 35
l 35 36
l 36 37
l 37 38
l 38 39
l 39 40
l 40 41
l 41 42
l 42 43
l 43 44
l 44 45
l 45 46
l 46 47
l 47 48
l 48 49
o Cube_Cube.001
v 0.799063 1.907030 -1.733853
v 0.799063 2.056658 1.904908
v 0.799063 2.046414 -1.739584
v 0.799063 2.196043 1.899176
v 0.215957 1.060478 -1.699041
v 0.215957 1.210106 1.939718
v 0.126497 1.159039 -1.703094
v 0.126497 1.308667 1.935665
v 0.465004 1.337435 -1.710430
v 0.820632 1.323481 -1.709856
v 1.160733 1.238275 -1.706353
v 1.486567 1.087742 -1.700163
v 1.679623 0.721780 -1.685114
v 1.442106 0.396520 -1.671739
v 1.115751 0.243749 -1.665457
v 0.777579 0.159942 -1.662011
v 0.436688 0.109361 -1.659931
v 0.092589 0.093133 -1.659264
v -0.251345 0.108141 -1.659881
v -0.593200 0.154721 -1.661796
v -0.930476 0.236677 -1.665166
v -1.259803 0.358988 -1.670196
v -1.567527 0.551680 -1.678119
v -1.805256 0.863212 -1.690930
v -1.764279 1.270766 -1.707689
v -1.526451 1.567676 -1.719898
v -1.230405 1.780351 -1.728643
v -0.904037 1.918818 -1.734337
v -0.564743 1.999852 -1.737669
v -0.221995 2.037705 -1.739226
v 0.120111 2.050256 -1.739741
v 0.460522 2.049539 -1.739712
v 0.460522 2.199167 1.899047
v 0.120111 2.199885 1.899017
v -0.221995 2.187333 1.899534
v -0.564742 2.149480 1.901090
v -0.904036 2.068447 1.904423
v -1.230405 1.929979 1.910116
v -1.526451 1.717304 1.918862
v -1.764279 1.420394 1.931071
v -1.805256 1.012840 1.947830
v -1.567527 0.701308 1.960640
v -1.259803 0.508616 1.968564
v -0.930476 0.386306 1.973593
v -0.593201 0.304349 1.976963
v -0.251345 0.257769 1.978879
v 0.092588 0.242761 1.979496
v 0.436688 0.258989 1.978829
v 0.777579 0.309570 1.976749
v 1.115751 0.393378 1.973303
v 1.442105 0.546148 1.967020
v 1.679623 0.871407 1.953645
v 1.486567 1.237370 1.938597
v 1.160733 1.387903 1.932407
v 0.820632 1.473109 1.928903
v 0.465004 1.487063 1.928329
v 0.459444 1.910160 -1.733981
v 0.121693 1.910883 -1.734010
v -0.213887 1.898607 -1.733506
v -0.545754 1.862046 -1.732002
v -0.868779 1.784956 -1.728832
v -1.174077 1.655543 -1.723511
v -1.443542 1.462391 -1.715568
v -1.651207 1.208235 -1.705118
v -1.686064 0.909952 -1.692852
v -1.490083 0.661901 -1.682652
v -1.209990 0.487115 -1.675465
v -0.896819 0.371040 -1.670691
v -0.571874 0.292111 -1.667446
v -0.240667 0.247028 -1.665592
v 0.092843 0.232517 -1.664996
v 0.425797 0.248228 -1.665641
v 0.756139 0.297311 -1.667660
v 1.078931 0.377101 -1.670941
v 1.375157 0.514791 -1.676603
v 1.555952 0.751180 -1.686323
v 1.421430 0.968249 -1.695249
v 1.123012 1.105230 -1.700882
v 0.802704 1.185503 -1.704183
v 0.482661 1.199414 -1.704755
v 0.482661 1.349042 1.934005
v 0.802704 1.335131 1.934577
v 1.123012 1.254858 1.937878
v 1.421430 1.117878 1.943510
v 1.555952 0.900808 1.952436
v 1.375158 0.664420 1.962157
v 1.078931 0.526729 1.967819
v 0.756139 0.446939 1.971100
v 0.425797 0.397856 1.973118
v 0.092844 0.382145 1.973764
v -0.240667 0.396657 1.973168
v -0.571873 0.441739 1.971314
v -0.896819 0.520667 1.968068
v -1.209990 0.636743 1.963295
v -1.490083 0.811529 1.956108
v -1.686064 1.059580 1.945908
v -1.651207 1.357863 1.933643
v -1.443542 1.612019 1.923191
v -1.174077 1.805171 1.915249
v -0.868779 1.934584 1.909927
v -0.545754 2.011674 1.906757
v -0.213887 2.048235 1.905254
v 0.121693 2.060511 1.904749
v 0.459444 2.059788 1.904779
vt 0.375000 0.000000
vt 0.375000 0.250000
vt 0.625000 0.250000
vt 0.625000 0.000000
vt 0.375000 0.490000
vt 0.375000 0.500000
vt 0.625000 0.500000
vt 0.625000 0.490000
vt 0.375000 0.750000
vt 0.625000 0.750000
vt 0.375000 0.990000
vt 0.375000 1.000000
vt 0.625000 1.000000
vt 0.625000 0.990000
vt 0.365000 0.500000
vt 0.365000 0.750000
vt 0.865000 0.500000
vt 0.865000 0.750000
vt 0.875000 0.750000
vt 0.875000 0.500000
vt 0.635000 0.750000
vt 0.635000 0.500000
vt 0.645000 0.750000
vt 0.645000 0.500000
vt 0.655000 0.750000
vt 0.655000 0.500000
vt 0.665000 0.750000
vt 0.665000 0.500000
vt 0.675000 0.750000
vt 0.675000 0.500000
vt 0.685000 0.750000
vt 0.685000 0.500000
vt 0.695000 0.750000
vt 0.695000 0.500000
vt 0.705000 0.750000
vt 0.705000 0.500000
vt 0.715000 0.750000
vt 0.715000 0.500000
vt 0.725000 0.750000
vt 0.725000 0.500000
vt 0.735000 0.750000
vt 0.735000 0.500000
vt 0.745000 0.750000
vt 0.745000 0.500000
vt 0.755000 0.750000
vt 0.755000 0.500000
vt 0.765000 0.750000
vt 0.765000 0.500000
vt 0.775000 0.750000
vt 0.775000 0.500000
vt 0.785000 0.750000
vt 0.785000 0.500000
vt 0.795000 0.750000
vt 0.795000 0.500000
vt 0.805000 0.750000
vt 0.805000 0.500000
vt 0.815000 0.750000
vt 0.815000 0.500000
vt 0.825000 0.750000
vt 0.825000 0.500000
vt 0.835000 0.750000
vt 0.835000 0.500000
vt 0.845000 0.750000
vt 0.845000 0.500000
vt 0.855000 0.750000
vt 0.855000 0.500000
vt 0.125000 0.500000
vt 0.125000 0.750000
vt 0.135000 0.750000
vt 0.135000 0.500000
vt 0.145000 0.750000
vt 0.145000 0.500000
vt 0.155000 0.750000
vt 0.155000 0.500000
vt 0.165000 0.750000
vt 0.165000 0.500000
vt 0.175000 0.750000
vt 0.175000 0.500000
vt 0.185000 0.750000
vt 0.185000 0.500000
vt 0.195000 0.750000
vt 0.195000 0.500000
vt 0.205000 0.750000
vt 0.205000 0.500000
vt 0.215000 0.750000
vt 0.215000 0.500000
vt 0.225000 0.750000
vt 0.225000 0.500000
vt 0.235000 0.750000
vt 0.235000 0.500000
vt 0.245000 0.750000
vt 0.245000 0.500000
vt 0.255000 0.750000
vt 0.255000 0.500000
vt 0.265000 0.750000
vt 0.265000 0.500000
vt 0.275000 0.750000
vt 0.275000 0.500000
vt 0.285000 0.750000
vt 0.285000 0.500000
vt 0.295000 0.750000
vt 0.295000 0.500000
vt 0.305000 0.750000
vt 0.305000 0.500000
vt 0.315000 0.750000
vt 0.315000 0.500000
vt 0.325000 0.750000
vt 0.325000 0.500000
vt 0.335000 0.750000
vt 0.335000 0.500000
vt 0.345000 0.750000
vt 0.345000 0.500000
vt 0.355000 0.750000
vt 0.355000 0.500000
vt 0.375000 0.760000
vt 0.625000 0.760000
vt 0.375000 0.770000
vt 0.625000 0.770000
vt 0.375000 0.780000
vt 0.625000 0.780000
vt 0.375000 0.790000
vt 0.625000 0.790000
vt 0.375000 0.800000
vt 0.625000 0.800000
vt 0.375000 0.810000
vt 0.625000 0.810000
vt 0.375000 0.820000
vt 0.625000 0.820000
vt 0.375000 0.830000
vt 0.625000 0.830000
vt 0.375000 0.840000
vt 0.625000 0.840000
vt 0.375000 0.850000
vt 0.625000 0.850000
vt 0.375000 0.860000
vt 0.625000 0.860000
vt 0.375000 0.870000
vt 0.625000 0.870000
vt 0.375000 0.880000
vt 0.625000 0.880000
vt 0.375000 0.890000
vt 0.625000 0.890000
vt 0.375000 0.900000
vt 0.625000 0.900000
vt 0.375000 0.910000
vt 0.625000 0.910000
vt 0.375000 0.920000
vt 0.625000 0.920000
vt 0.375000 0.930000
vt 0.625000 0.930000
vt 0.375000 0.940000
vt 0.625000 0.940000
vt 0.375000 0.950000
vt 0.625000 0.950000
vt 0.375000 0.960000
vt 0.625000 0.960000
vt 0.375000 0.970000
vt 0.625000 0.970000
vt 0.375000 0.980000
vt 0.625000 0.980000
vt 0.375000 0.260000
vt 0.625000 0.260000
vt 0.375000 0.270000
vt 0.625000 0.270000
vt 0.375000 0.280000
vt 0.625000 0.280000
vt 0.375000 0.290000
vt 0.625000 0.290000
vt 0.375000 0.300000
vt 0.625000 0.300000
vt 0.375000 0.310000
vt 0.625000 0.310000
vt 0.375000 0.320000
vt 0.625000 0.320000
vt 0.375000 0.330000
vt 0.625000 0.330000
vt 0.375000 0.340000
vt 0.625000 0.340000
vt 0.375000 0.350000
vt 0.625000 0.350000
vt 0.375000 0.360000
vt 0.625000 0.360000
vt 0.375000 0.370000
vt 0.625000 0.370000
vt 0.375000 0.380000
vt 0.625000 0.380000
vt 0.375000 0.390000
vt 0.625000 0.390000
vt 0.375000 0.400000
vt 0.625000 0.400000
vt 0.375000 0.410000
vt 0.625000 0.410000
vt 0.375000 0.420000
vt 0.625000 0.420000
vt 0.375000 0.430000
vt 0.625000 0.430000
vt 0.375000 0.440000
vt 0.625000 0.440000
vt 0.375000 0.450000
vt 0.625000 0.450000
vt 0.375000 0.460000
vt 0.625000 0.460000
vt 0.375000 0.470000
vt 0.625000 0.470000
vt 0.375000 0.480000
vt 0.625000 0.480000
vn 1.0000 -0.0000 0.0000
vn -0.4665 0.8838 -0.0363
vn -0.7408 -0.6712 0.0276
vn -0.0092 -0.9991 0.0411
vn -0.0000 -0.0411 -0.9992
vn 0.0000 0.0411 0.9992
vn 0.4623 -0.8860 0.0364
vn -0.0435 -0.9982 0.0410
vn -0.2433 -0.9691 0.0399
vn -0.4175 -0.9079 0.0373
vn -0.8502 -0.5260 0.0216
vn -0.7946 0.6067 -0.0249
vn -0.4218 0.9059 -0.0373
vn -0.2402 0.9699 -0.0399
vn -0.1471 0.9883 -0.0406
vn -0.0472 0.9980 -0.0410
vn 0.0435 0.9982 -0.0410
vn 0.1350 0.9900 -0.0407
vn 0.2362 0.9709 -0.0399
vn 0.3478 0.9368 -0.0385
vn 0.5297 0.8475 -0.0348
vn 0.7849 0.6191 -0.0255
vn 0.9933 -0.1159 0.0048
vn 0.7746 -0.6319 0.0260
vn 0.5829 -0.8118 0.0334
vn 0.3906 -0.9198 0.0378
vn 0.2323 -0.9718 0.0400
vn 0.1096 -0.9931 0.0408
vn 0.0366 -0.9985 0.0411
vn -0.0021 -0.9992 0.0411
vn 0.0092 0.9991 -0.0411
vn 0.0021 0.9992 -0.0411
vn -0.0367 0.9985 -0.0411
vn -0.1099 0.9931 -0.0408
vn -0.2325 0.9718 -0.0400
vn -0.3908 0.9197 -0.0378
vn -0.5838 0.8112 -0.0334
vn -0.7807 0.6243 -0.0257
vn -0.9950 0.0999 -0.0041
vn -0.7952 -0.6058 0.0249
vn -0.5310 -0.8466 0.0348
vn -0.3484 -0.9365 0.0385
vn -0.2363 -0.9709 0.0399
vn -0.1351 -0.9900 0.0407
vn -0.0436 -0.9982 0.0410
vn 0.0471 -0.9980 0.0410
vn 0.1469 -0.9883 0.0406
vn 0.2407 -0.9698 0.0399
vn 0.4243 -0.9048 0.0372
vn 0.8078 -0.5889 0.0242
vn 0.8846 0.4659 -0.0192
vn 0.4197 0.9069 -0.0373
vn 0.2432 0.9692 -0.0399
vn 0.0392 0.9984 -0.0411
usemtl None
s off
f 50/1/1 52/2/1 53/3/1 51/4/1
f 58/5/2 56/6/2 57/7/2 105/8/2
f 56/6/3 54/9/3 55/10/3 57/7/3
f 106/11/4 50/12/4 51/13/4 153/14/4
f 58/15/5 129/16/5 54/9/5 56/6/5
f 82/17/6 153/18/6 51/19/6 53/20/6
f 57/7/6 55/10/6 130/21/6 105/22/6
f 105/22/6 130/21/6 131/23/6 104/24/6
f 104/24/6 131/23/6 132/25/6 103/26/6
f 103/26/6 132/25/6 133/27/6 102/28/6
f 102/28/6 133/27/6 134/29/6 101/30/6
f 101/30/6 134/29/6 135/31/6 100/32/6
f 100/32/6 135/31/6 136/33/6 99/34/6
f 99/34/6 136/33/6 137/35/6 98/36/6
f 98/36/6 137/35/6 138/37/6 97/38/6
f 97/38/6 138/37/6 139/39/6 96/40/6
f 96/40/6 139/39/6 140/41/6 95/42/6
f 95/42/6 140/41/6 141/43/6 94/44/6
f 94/44/6 141/43/6 142/45/6 93/46/6
f 93/46/6 142/45/6 143/47/6 92/48/6
f 92/48/6 143/47/6 144/49/6 91/50/6
f 91/50/6 144/49/6 145/51/6 90/52/6
f 90/52/6 145/51/6 146/53/6 89/54/6
f 89/54/6 146/53/6 147/55/6 88/56/6
f 88/56/6 147/55/6 148/57/6 87/58/6
f 87/58/6 148/57/6 149/59/6 86/60/6
f 86/60/6 149/59/6 150/61/6 85/62/6
f 85/62/6 150/61/6 151/63/6 84/64/6
f 84/64/6 151/63/6 152/65/6 83/66/6
f 83/66/6 152/65/6 153/18/6 82/17/6
f 52/67/5 50/68/5 106/69/5 81/70/5
f 81/70/5 106/69/5 107/71/5 80/72/5
f 80/72/5 107/71/5 108/73/5 79/74/5
f 79/74/5 108/73/5 109/75/5 78/76/5
f 78/76/5 109/75/5 110/77/5 77/78/5
f 77/78/5 110/77/5 111/79/5 76/80/5
f 76/80/5 111/79/5 112/81/5 75/82/5
f 75/82/5 112/81/5 113/83/5 74/84/5
f 74/84/5 113/83/5 114/85/5 73/86/5
f 73/86/5 114/85/5 115/87/5 72/88/5
f 72/88/5 115/87/5 116/89/5 71/90/5
f 71/90/5 116/89/5 117/91/5 70/92/5
f 70/92/5 117/91/5 118/93/5 69/94/5
f 69/94/5 118/93/5 119/95/5 68/96/5
f 68/96/5 119/95/5 120/97/5 67/98/5
f 67/98/5 120/97/5 121/99/5 66/100/5
f 66/100/5 121/99/5 122/101/5 65/102/5
f 65/102/5 122/101/5 123/103/5 64/104/5
f 64/104/5 123/103/5 124/105/5 63/106/5
f 63/106/5 124/105/5 125/107/5 62/108/5
f 62/108/5 125/107/5 126/109/5 61/110/5
f 61/110/5 126/109/5 127/111/5 60/112/5
f 60/112/5 127/111/5 128/113/5 59/114/5
f 59/114/5 128/113/5 129/16/5 58/15/5
f 54/9/7 129/115/7 130/116/7 55/10/7
f 129/115/8 128/117/8 131/118/8 130/116/8
f 128/117/9 127/119/9 132/120/9 131/118/9
f 127/119/10 126/121/10 133/122/10 132/120/10
f 126/121/11 125/123/11 134/124/11 133/122/11
f 125/123/12 124/125/12 135/126/12 134/124/12
f 124/125/13 123/127/13 136/128/13 135/126/13
f 123/127/14 122/129/14 137/130/14 136/128/14
f 122/129/15 121/131/15 138/132/15 137/130/15
f 121/131/16 120/133/16 139/134/16 138/132/16
f 120/133/17 119/135/17 140/136/17 139/134/17
f 119/135/18 118/137/18 141/138/18 140/136/18
f 118/137/19 117/139/19 142/140/19 141/138/19
f 117/139/20 116/141/20 143/142/20 142/140/20
f 116/141/21 115/143/21 144/144/21 143/142/21
f 115/143/22 114/145/22 145/146/22 144/144/22
f 114/145/23 113/147/23 146/148/23 145/146/23
f 113/147/24 112/149/24 147/150/24 146/148/24
f 112/149/25 111/151/25 148/152/25 147/150/25
f 111/151/26 110/153/26 149/154/26 148/152/26
f 110/153/27 109/155/27 150/156/27 149/154/27
f 109/155/28 108/157/28 151/158/28 150/156/28
f 108/157/29 107/159/29 152/160/29 151/158/29
f 107/159/30 106/11/30 153/14/30 152/160/30
f 52/2/31 81/161/31 82/162/31 53/3/31
f 81/161/32 80/163/32 83/164/32 82/162/32
f 80/163/33 79/165/33 84/166/33 83/164/33
f 79/165/34 78/167/34 85/168/34 84/166/34
f 78/167/35 77/169/35 86/170/35 85/168/35
f 77/169/36 76/171/36 87/172/36 86/170/36
f 76/171/37 75/173/37 88/174/37 87/172/37
f 75/173/38 74/175/38 89/176/38 88/174/38
f 74/175/39 73/177/39 90/178/39 89/176/39
f 73/177/40 72/179/40 91/180/40 90/178/40
f 72/179/41 71/181/41 92/182/41 91/180/41
f 71/181/42 70/183/42 93/184/42 92/182/42
f 70/183/43 69/185/43 94/186/43 93/184/43
f 69/185/44 68/187/44 95/188/44 94/186/44
f 68/187/45 67/189/45 96/190/45 95/188/45
f 67/189/46 66/191/46 97/192/46 96/190/46
f 66/191/47 65/193/47 98/194/47 97/192/47
f 65/193/48 64/195/48 99/196/48 98/194/48
f 64/195/49 63/197/49 100/198/49 99/196/49
f 63/197/50 62/199/50 101/200/50 100/198/50
f 62/199/51 61/201/51 102/202/51 101/200/51
f 61/201/52 60/203/52 103/204/52 102/202/52
f 60/203/53 59/205/53 104/206/53 103/204/53
f 59/205/54 58/5/54 105/8/54 104/206/54
