# Blender v2.93.0 OBJ File: ''
# www.blender.org
mtllib Simple Fold.mtl
o BezierCurve
v 0.000000 1.084878 0.000000
v -0.160398 1.197296 0.000081
v -0.355504 1.259932 0.000126
v -0.573580 1.278274 0.000139
v -0.802887 1.257812 0.000124
v -1.031689 1.204033 0.000085
v -1.248247 1.122428 0.000027
v -1.440823 1.018484 -0.000048
v -1.597680 0.897690 -0.000134
v -1.707079 0.765535 -0.000229
v -1.757284 0.627508 -0.000328
v -1.736555 0.489097 -0.000427
v -1.633156 0.355792 -0.000523
v -1.463826 0.257628 -0.000593
v -1.223538 0.186338 -0.000645
v -0.926378 0.140672 -0.000677
v -0.586431 0.119381 -0.000693
v -0.217784 0.121215 -0.000691
v 0.165477 0.144924 -0.000674
v 0.549266 0.189259 -0.000642
v 0.919496 0.252971 -0.000597
v 1.262083 0.334809 -0.000538
v 1.562940 0.433525 -0.000467
v 1.807981 0.547868 -0.000385
v 1.983119 0.676590 -0.000293
l 1 2
l 2 3
l 3 4
l 4 5
l 5 6
l 6 7
l 7 8
l 8 9
l 9 10
l 10 11
l 11 12
l 12 13
l 13 14
l 14 15
l 15 16
l 16 17
l 17 18
l 18 19
l 19 20
l 20 21
l 21 22
l 22 23
l 23 24
l 24 25
o Cube_Cube.001
v 0.060692 1.147317 -2.439811
v 0.060692 1.143817 2.439898
v -0.060692 1.025939 -2.439898
v -0.060692 1.022439 2.439811
v 2.371917 0.858800 -2.440018
v 2.371917 0.855300 2.439691
v 2.250536 0.980180 -2.439931
v 2.250536 0.976680 2.439778
v 2.040185 0.825578 -2.440042
v 1.838370 0.678452 -2.440148
v 1.627512 0.560119 -2.440232
v 1.393375 0.469963 -2.440296
v 1.149218 0.397821 -2.440348
v 0.899809 0.338380 -2.440391
v 0.646041 0.294750 -2.440423
v 0.390891 0.259112 -2.440448
v 0.134589 0.230734 -2.440468
v -0.122762 0.214828 -2.440480
v -0.380063 0.207988 -2.440485
v -0.636940 0.210272 -2.440483
v -0.892317 0.226221 -2.440472
v -1.142578 0.262401 -2.440446
v -1.380757 0.323989 -2.440402
v -1.581438 0.429020 -2.440326
v -1.666040 0.595609 -2.440207
v -1.589328 0.775060 -2.440078
v -1.416643 0.930662 -2.439966
v -1.202808 1.049750 -2.439881
v -0.969024 1.132419 -2.439822
v -0.726669 1.180220 -2.439787
v -0.483814 1.186342 -2.439782
v -0.254064 1.139171 -2.439817
v -0.254065 1.135672 2.439892
v -0.483814 1.182842 2.439926
v -0.726670 1.176721 2.439922
v -0.969025 1.128919 2.439887
v -1.202808 1.046250 2.439828
v -1.416644 0.927161 2.439743
v -1.589328 0.771560 2.439631
v -1.666040 0.592108 2.439502
v -1.581438 0.425518 2.439383
v -1.380756 0.320487 2.439307
v -1.142578 0.258900 2.439263
v -0.892317 0.222720 2.439237
v -0.636939 0.206772 2.439226
v -0.380063 0.204488 2.439224
v -0.122762 0.211327 2.439229
v 0.134590 0.227233 2.439240
v 0.390891 0.255612 2.439261
v 0.646042 0.291250 2.439286
v 0.899809 0.334880 2.439318
v 1.149219 0.394321 2.439360
v 1.393376 0.466463 2.439412
v 1.627512 0.556619 2.439477
v 1.838370 0.674952 2.439562
v 2.040185 0.822078 2.439667
v -0.190856 1.298769 -2.439702
v -0.468984 1.357359 -2.439660
v -0.746253 1.350758 -2.439665
v -1.015164 1.297760 -2.439703
v -1.273016 1.206394 -2.439769
v -1.514396 1.071768 -2.439865
v -1.726228 0.878622 -2.440004
v -1.837607 0.589991 -2.440211
v -1.698042 0.303042 -2.440417
v -1.442237 0.163718 -2.440516
v -1.176013 0.094030 -2.440567
v -0.909736 0.055448 -2.440594
v -0.644028 0.038761 -2.440606
v -0.379016 0.036332 -2.440608
v -0.114594 0.043364 -2.440603
v 0.149164 0.059695 -2.440591
v 0.411743 0.088725 -2.440570
v 0.673482 0.125299 -2.440544
v 0.934258 0.170214 -2.440512
v 1.192729 0.231769 -2.440468
v 1.448868 0.307522 -2.440413
v 1.700986 0.404979 -2.440343
v 1.942682 0.542123 -2.440245
v 2.161567 0.704198 -2.440129
v 2.161567 0.700698 2.439580
v 1.942683 0.538623 2.439464
v 1.700986 0.401479 2.439365
v 1.448868 0.304021 2.439295
v 1.192730 0.228268 2.439241
v 0.934258 0.166714 2.439197
v 0.673483 0.121799 2.439165
v 0.411743 0.085225 2.439139
v 0.149165 0.056195 2.439117
v -0.114593 0.039863 2.439106
v -0.379015 0.032832 2.439101
v -0.644027 0.035259 2.439103
v -0.909735 0.051948 2.439115
v -1.176013 0.090530 2.439143
v -1.442236 0.160217 2.439192
v -1.698042 0.299541 2.439292
v -1.837607 0.586490 2.439498
v -1.726228 0.875121 2.439705
v -1.514396 1.068268 2.439844
v -1.273017 1.202894 2.439940
v -1.015164 1.294261 2.440006
v -0.746254 1.347258 2.440044
v -0.468984 1.353859 2.440048
v -0.190857 1.295269 2.440006
vt 0.375000 0.000000
vt 0.625000 0.000000
vt 0.625000 0.250000
vt 0.375000 0.250000
vt 0.375000 0.490000
vt 0.625000 0.490000
vt 0.625000 0.500000
vt 0.375000 0.500000
vt 0.625000 0.750000
vt 0.375000 0.750000
vt 0.375000 0.990000
vt 0.625000 0.990000
vt 0.625000 1.000000
vt 0.375000 1.000000
vt 0.365000 0.500000
vt 0.365000 0.750000
vt 0.865000 0.500000
vt 0.875000 0.500000
vt 0.875000 0.750000
vt 0.865000 0.750000
vt 0.635000 0.500000
vt 0.635000 0.750000
vt 0.645000 0.500000
vt 0.645000 0.750000
vt 0.655000 0.500000
vt 0.655000 0.750000
vt 0.665000 0.500000
vt 0.665000 0.750000
vt 0.675000 0.500000
vt 0.675000 0.750000
vt 0.685000 0.500000
vt 0.685000 0.750000
vt 0.695000 0.500000
vt 0.695000 0.750000
vt 0.705000 0.500000
vt 0.705000 0.750000
vt 0.715000 0.500000
vt 0.715000 0.750000
vt 0.725000 0.500000
vt 0.725000 0.750000
vt 0.735000 0.500000
vt 0.735000 0.750000
vt 0.745000 0.500000
vt 0.745000 0.750000
vt 0.755000 0.500000
vt 0.755000 0.750000
vt 0.765000 0.500000
vt 0.765000 0.750000
vt 0.775000 0.500000
vt 0.775000 0.750000
vt 0.785000 0.500000
vt 0.785000 0.750000
vt 0.795000 0.500000
vt 0.795000 0.750000
vt 0.805000 0.500000
vt 0.805000 0.750000
vt 0.815000 0.500000
vt 0.815000 0.750000
vt 0.825000 0.500000
vt 0.825000 0.750000
vt 0.835000 0.500000
vt 0.835000 0.750000
vt 0.845000 0.500000
vt 0.845000 0.750000
vt 0.855000 0.500000
vt 0.855000 0.750000
vt 0.125000 0.500000
vt 0.135000 0.500000
vt 0.135000 0.750000
vt 0.125000 0.750000
vt 0.145000 0.500000
vt 0.145000 0.750000
vt 0.155000 0.500000
vt 0.155000 0.750000
vt 0.165000 0.500000
vt 0.165000 0.750000
vt 0.175000 0.500000
vt 0.175000 0.750000
vt 0.185000 0.500000
vt 0.185000 0.750000
vt 0.195000 0.500000
vt 0.195000 0.750000
vt 0.205000 0.500000
vt 0.205000 0.750000
vt 0.215000 0.500000
vt 0.215000 0.750000
vt 0.225000 0.500000
vt 0.225000 0.750000
vt 0.235000 0.500000
vt 0.235000 0.750000
vt 0.245000 0.500000
vt 0.245000 0.750000
vt 0.255000 0.500000
vt 0.255000 0.750000
vt 0.265000 0.500000
vt 0.265000 0.750000
vt 0.275000 0.500000
vt 0.275000 0.750000
vt 0.285000 0.500000
vt 0.285000 0.750000
vt 0.295000 0.500000
vt 0.295000 0.750000
vt 0.305000 0.500000
vt 0.305000 0.750000
vt 0.315000 0.500000
vt 0.315000 0.750000
vt 0.325000 0.500000
vt 0.325000 0.750000
vt 0.335000 0.500000
vt 0.335000 0.750000
vt 0.345000 0.500000
vt 0.345000 0.750000
vt 0.355000 0.500000
vt 0.355000 0.750000
vt 0.625000 0.760000
vt 0.375000 0.760000
vt 0.625000 0.770000
vt 0.375000 0.770000
vt 0.625000 0.780000
vt 0.375000 0.780000
vt 0.625000 0.790000
vt 0.375000 0.790000
vt 0.625000 0.800000
vt 0.375000 0.800000
vt 0.625000 0.810000
vt 0.375000 0.810000
vt 0.625000 0.820000
vt 0.375000 0.820000
vt 0.625000 0.830000
vt 0.375000 0.830000
vt 0.625000 0.840000
vt 0.375000 0.840000
vt 0.625000 0.850000
vt 0.375000 0.850000
vt 0.625000 0.860000
vt 0.375000 0.860000
vt 0.625000 0.870000
vt 0.375000 0.870000
vt 0.625000 0.880000
vt 0.375000 0.880000
vt 0.625000 0.890000
vt 0.375000 0.890000
vt 0.625000 0.900000
vt 0.375000 0.900000
vt 0.625000 0.910000
vt 0.375000 0.910000
vt 0.625000 0.920000
vt 0.375000 0.920000
vt 0.625000 0.930000
vt 0.375000 0.930000
vt 0.625000 0.940000
vt 0.375000 0.940000
vt 0.625000 0.950000
vt 0.375000 0.950000
vt 0.625000 0.960000
vt 0.375000 0.960000
vt 0.625000 0.970000
vt 0.375000 0.970000
vt 0.625000 0.980000
vt 0.375000 0.980000
vt 0.625000 0.260000
vt 0.375000 0.260000
vt 0.625000 0.270000
vt 0.375000 0.270000
vt 0.625000 0.280000
vt 0.375000 0.280000
vt 0.625000 0.290000
vt 0.375000 0.290000
vt 0.625000 0.300000
vt 0.375000 0.300000
vt 0.625000 0.310000
vt 0.375000 0.310000
vt 0.625000 0.320000
vt 0.375000 0.320000
vt 0.625000 0.330000
vt 0.375000 0.330000
vt 0.625000 0.340000
vt 0.375000 0.340000
vt 0.625000 0.350000
vt 0.375000 0.350000
vt 0.625000 0.360000
vt 0.375000 0.360000
vt 0.625000 0.370000
vt 0.375000 0.370000
vt 0.625000 0.380000
vt 0.375000 0.380000
vt 0.625000 0.390000
vt 0.375000 0.390000
vt 0.625000 0.400000
vt 0.375000 0.400000
vt 0.625000 0.410000
vt 0.375000 0.410000
vt 0.625000 0.420000
vt 0.375000 0.420000
vt 0.625000 0.430000
vt 0.375000 0.430000
vt 0.625000 0.440000
vt 0.375000 0.440000
vt 0.625000 0.450000
vt 0.375000 0.450000
vt 0.625000 0.460000
vt 0.375000 0.460000
vt 0.625000 0.470000
vt 0.375000 0.470000
vt 0.625000 0.480000
vt 0.375000 0.480000
vn 0.7071 -0.7071 -0.0005
vn -0.5922 0.8058 0.0006
vn 0.7071 0.7071 0.0005
vn 0.5158 0.8567 0.0006
vn 0.0000 0.0007 -1.0000
vn -0.0000 -0.0007 1.0000
vn 0.5922 -0.8058 -0.0006
vn 0.5951 -0.8037 -0.0006
vn 0.4935 -0.8697 -0.0006
vn 0.3606 -0.9327 -0.0007
vn 0.2836 -0.9589 -0.0007
vn 0.2317 -0.9728 -0.0007
vn 0.1697 -0.9855 -0.0007
vn 0.1384 -0.9904 -0.0007
vn 0.1099 -0.9939 -0.0007
vn 0.0618 -0.9981 -0.0007
vn 0.0266 -0.9996 -0.0007
vn -0.0092 -1.0000 -0.0007
vn -0.0627 -0.9980 -0.0007
vn -0.1434 -0.9897 -0.0007
vn -0.2532 -0.9674 -0.0007
vn -0.4783 -0.8782 -0.0006
vn -0.8993 -0.4374 -0.0003
vn -0.9329 0.3600 0.0003
vn -0.6738 0.7389 0.0005
vn -0.4871 0.8733 0.0006
vn -0.3340 0.9426 0.0007
vn -0.1934 0.9811 0.0007
vn -0.0238 0.9997 0.0007
vn 0.2061 0.9785 0.0007
vn -0.5053 -0.8629 -0.0006
vn -0.2011 -0.9796 -0.0007
vn 0.0252 -0.9997 -0.0007
vn 0.1935 -0.9811 -0.0007
vn 0.3334 -0.9428 -0.0007
vn 0.4866 -0.8737 -0.0006
vn 0.6694 -0.7429 -0.0005
vn 0.9195 -0.3931 -0.0003
vn 0.8916 0.4528 0.0003
vn 0.4637 0.8860 0.0006
vn 0.2503 0.9682 0.0007
vn 0.1431 0.9897 0.0007
vn 0.0623 0.9981 0.0007
vn 0.0089 1.0000 0.0007
vn -0.0266 0.9996 0.0007
vn -0.0617 0.9981 0.0007
vn -0.1101 0.9939 0.0007
vn -0.1383 0.9904 0.0007
vn -0.1694 0.9855 0.0007
vn -0.2318 0.9728 0.0007
vn -0.2834 0.9590 0.0007
vn -0.3593 0.9332 0.0007
vn -0.4894 0.8721 0.0006
vn -0.5891 0.8081 0.0006
usemtl None
s off
f 26/1/1 27/2/1 29/3/1 28/4/1
f 34/5/2 81/6/2 33/7/2 32/8/2
f 32/8/3 33/7/3 31/9/3 30/10/3
f 82/11/4 129/12/4 27/13/4 26/14/4
f 34/15/5 32/8/5 30/10/5 105/16/5
f 58/17/6 29/18/6 27/19/6 129/20/6
f 33/7/6 81/21/6 106/22/6 31/9/6
f 81/21/6 80/23/6 107/24/6 106/22/6
f 80/23/6 79/25/6 108/26/6 107/24/6
f 79/25/6 78/27/6 109/28/6 108/26/6
f 78/27/6 77/29/6 110/30/6 109/28/6
f 77/29/6 76/31/6 111/32/6 110/30/6
f 76/31/6 75/33/6 112/34/6 111/32/6
f 75/33/6 74/35/6 113/36/6 112/34/6
f 74/35/6 73/37/6 114/38/6 113/36/6
f 73/37/6 72/39/6 115/40/6 114/38/6
f 72/39/6 71/41/6 116/42/6 115/40/6
f 71/41/6 70/43/6 117/44/6 116/42/6
f 70/43/6 69/45/6 118/46/6 117/44/6
f 69/45/6 68/47/6 119/48/6 118/46/6
f 68/47/6 67/49/6 120/50/6 119/48/6
f 67/49/6 66/51/6 121/52/6 120/50/6
f 66/51/6 65/53/6 122/54/6 121/52/6
f 65/53/6 64/55/6 123/56/6 122/54/6
f 64/55/6 63/57/6 124/58/6 123/56/6
f 63/57/6 62/59/6 125/60/6 124/58/6
f 62/59/6 61/61/6 126/62/6 125/60/6
f 61/61/6 60/63/6 127/64/6 126/62/6
f 60/63/6 59/65/6 128/66/6 127/64/6
f 59/65/6 58/17/6 129/20/6 128/66/6
f 28/67/5 57/68/5 82/69/5 26/70/5
f 57/68/5 56/71/5 83/72/5 82/69/5
f 56/71/5 55/73/5 84/74/5 83/72/5
f 55/73/5 54/75/5 85/76/5 84/74/5
f 54/75/5 53/77/5 86/78/5 85/76/5
f 53/77/5 52/79/5 87/80/5 86/78/5
f 52/79/5 51/81/5 88/82/5 87/80/5
f 51/81/5 50/83/5 89/84/5 88/82/5
f 50/83/5 49/85/5 90/86/5 89/84/5
f 49/85/5 48/87/5 91/88/5 90/86/5
f 48/87/5 47/89/5 92/90/5 91/88/5
f 47/89/5 46/91/5 93/92/5 92/90/5
f 46/91/5 45/93/5 94/94/5 93/92/5
f 45/93/5 44/95/5 95/96/5 94/94/5
f 44/95/5 43/97/5 96/98/5 95/96/5
f 43/97/5 42/99/5 97/100/5 96/98/5
f 42/99/5 41/101/5 98/102/5 97/100/5
f 41/101/5 40/103/5 99/104/5 98/102/5
f 40/103/5 39/105/5 100/106/5 99/104/5
f 39/105/5 38/107/5 101/108/5 100/106/5
f 38/107/5 37/109/5 102/110/5 101/108/5
f 37/109/5 36/111/5 103/112/5 102/110/5
f 36/111/5 35/113/5 104/114/5 103/112/5
f 35/113/5 34/15/5 105/16/5 104/114/5
f 30/10/7 31/9/7 106/115/7 105/116/7
f 105/116/8 106/115/8 107/117/8 104/118/8
f 104/118/9 107/117/9 108/119/9 103/120/9
f 103/120/10 108/119/10 109/121/10 102/122/10
f 102/122/11 109/121/11 110/123/11 101/124/11
f 101/124/12 110/123/12 111/125/12 100/126/12
f 100/126/13 111/125/13 112/127/13 99/128/13
f 99/128/14 112/127/14 113/129/14 98/130/14
f 98/130/15 113/129/15 114/131/15 97/132/15
f 97/132/16 114/131/16 115/133/16 96/134/16
f 96/134/17 115/133/17 116/135/17 95/136/17
f 95/136/18 116/135/18 117/137/18 94/138/18
f 94/138/19 117/137/19 118/139/19 93/140/19
f 93/140/20 118/139/20 119/141/20 92/142/20
f 92/142/21 119/141/21 120/143/21 91/144/21
f 91/144/22 120/143/22 121/145/22 90/146/22
f 90/146/23 121/145/23 122/147/23 89/148/23
f 89/148/24 122/147/24 123/149/24 88/150/24
f 88/150/25 123/149/25 124/151/25 87/152/25
f 87/152/26 124/151/26 125/153/26 86/154/26
f 86/154/27 125/153/27 126/155/27 85/156/27
f 85/156/28 126/155/28 127/157/28 84/158/28
f 84/158/29 127/157/29 128/159/29 83/160/29
f 83/160/30 128/159/30 129/12/30 82/11/30
f 28/4/31 29/3/31 58/161/31 57/162/31
f 57/162/32 58/161/32 59/163/32 56/164/32
f 56/164/33 59/163/33 60/165/33 55/166/33
f 55/166/34 60/165/34 61/167/34 54/168/34
f 54/168/35 61/167/35 62/169/35 53/170/35
f 53/170/36 62/169/36 63/171/36 52/172/36
f 52/172/37 63/171/37 64/173/37 51/174/37
f 51/174/38 64/173/38 65/175/38 50/176/38
f 50/176/39 65/175/39 66/177/39 49/178/39
f 49/178/40 66/177/40 67/179/40 48/180/40
f 48/180/41 67/179/41 68/181/41 47/182/41
f 47/182/42 68/181/42 69/183/42 46/184/42
f 46/184/43 69/183/43 70/185/43 45/186/43
f 45/186/44 70/185/44 71/187/44 44/188/44
f 44/188/45 71/187/45 72/189/45 43/190/45
f 43/190/46 72/189/46 73/191/46 42/192/46
f 42/192/47 73/191/47 74/193/47 41/194/47
f 41/194/48 74/193/48 75/195/48 40/196/48
f 40/196/49 75/195/49 76/197/49 39/198/49
f 39/198/50 76/197/50 77/199/50 38/200/50
f 38/200/51 77/199/51 78/201/51 37/202/51
f 37/202/52 78/201/52 79/203/52 36/204/52
f 36/204/53 79/203/53 80/205/53 35/206/53
f 35/206/54 80/205/54 81/6/54 34/5/54
